<?xml version="1.0" encoding="UTF-8"?><svg id="Layer_1" xmlns="http://www.w3.org/2000/svg" viewBox="0 0 746.8 216.11"><path d="m77.87,21.22c-.11.41-.38,1.39-.58,2.17-.21.78-.88,3.17-1.49,5.31s-1.32,4.68-1.56,5.66c-.45,1.77-1.92,5.51-2.7,6.88-.74,1.3-1.44,1.95-3.21,2.96-1.88,1.09-2.08,1.23-3.1,2.22-1.27,1.23-2.08,2.76-2.55,4.83-.18.85-.23,1.97-.24,6.55-.01,6.16.01,5.93-.99,6.1-.72.11-1.49.82-1.51,1.42-.03.68.03.92.51,2.31.25.75.57,1.9.71,2.55.37,1.9.86,3.75,1.61,6.19,1.1,3.52,1.13,3.82,1.02,9.24-.04,1.81,0,2.82.13,3.26.2.72.95,1.84,1.23,1.84.65,0,.96-2.76.84-7.36-.04-1.91-.13-3.95-.17-4.53l-.08-1.06.35.35c.4.4,2.29,4.7,3.18,7.25,1.15,3.28,1.33,5.62.54,7.2-.67,1.33-1.3,1.84-3.06,2.48-1.64.59-4.4,1.84-9.3,4.22-5.72,2.76-8.25,3.86-11.04,4.77-3.48,1.13-3.45,1.12-4.16,1.83-1.71,1.71-2.63,5.01-3.31,11.89-.11,1.2-.31,2.99-.42,3.96s-.27,2.55-.35,3.51c-.08.99-.38,2.83-.71,4.25-.55,2.48-.92,5.1-1.33,9.37-.89,9.19-.62,11.8,1.43,14.38.96,1.19,1.6,2.49,2.45,4.94.4,1.16,1.02,2.69,1.37,3.4.37.69.85,1.64,1.08,2.08.76,1.49.69,2.75-.2,3.72-.67.72-1.6,1.15-3.07,1.42-1.19.21-3.58,1.02-6.54,2.24-1.8.74-2.65,1.02-6.21,2.09-.82.24-2.99,1.09-4.81,1.9-4.16,1.81-4.95,2.07-8.29,2.73-2.48.5-2.77.58-3.54,1.1-1.1.72-3.43,3.03-4.1,4.05-.41.62-.55,1-.64,1.78-.07.54-.25,1.61-.41,2.38-.93,4.66-.69,7.6.76,9.23,1.02,1.12,1.37,1.23,6.82,1.87,9.53,1.13,20.74,2.12,30.26,2.68,10.83.64,15.94.78,28.24.78,11.05,0,14.14-.07,23-.5,19.52-.93,36.6.33,54-3.24,3.4-.85,5.69-4.25,5.72-4.25.13,0,.65-1.1.96-1.98.57-1.61.45-5.69-.23-8.39-.84-3.3-2.79-5.62-6.11-7.3-2.08-1.03-4.03-1.64-8.83-2.72-1.76-.4-3.84-.93-4.63-1.2-1.83-.61-2.68-.81-5.49-1.26-3.91-.62-5.22-.99-6.91-1.87-2.34-1.23-3.84-3.54-4.68-7.25-.27-1.15-.08-2.19.76-4.54,1.98-5.45,2.05-5.75,2.04-9.91,0-3.41-.13-5.02-1.06-13.09-1.43-12.44-2.9-23.38-3.38-25.09-.89-3.2-3.09-6.14-5.82-7.86-1.98-1.23-3.4-1.68-8.99-2.86-5.55-1.17-9.87-2.48-10.94-3.3-2.14-1.63-3.04-4.77-2.32-8.05.24-1.09,1.37-3.58,1.68-3.68.11-.04.2.57.27,1.9.11,2.21.24,3.17.58,4.26.41,1.27,1.46,2.08,1.66,1.26.2-.78.38-2.97.52-6.11.08-1.87.25-4.19.37-5.17.21-1.67.42-2.62,1.95-8.39.68-2.58,1.08-4.61,1.08-5.58,0-.85-.4-1.23-1.15-1.13-.52.07-.55.06-.64-.42-.06-.28-.04-2.04.03-3.92.18-5.08.16-7.49-.14-8.56-.79-2.92-3.27-5.77-6.41-7.37-2.92-1.49-3.82-3.03-5.22-8.92-1.26-5.28-2.34-9.28-3.16-11.65-.23-.64-.51-1.53-.64-1.97s-.3-.85-.37-.89-.23.25-.34.67Zm-23.13,105.59c.91,1.59,1.54,2.97,2.17,4.71.34.93,1.13,3,1.77,4.6,1.66,4.15,1.9,5.08,1.9,7.71,0,2.43-.16,3.6-1.27,9.34-.99,5.05-1.42,6.84-1.76,7.4-.33.54-.45.55-.85.13-.48-.5-5.72-8.7-6.27-9.79-.91-1.81-.96-2.11-.74-3.69.11-.78.45-2.65.78-4.16s1.12-5.41,1.78-8.63c1.44-7.13,1.76-8.49,1.88-8.49.06,0,.33.4.61.88Z"/><path d="m160.34,93.01c-1.99,0-3.86-.27-5.61-.82-1.75-.54-3.36-1.36-4.83-2.45-.19-.19-.39-.41-.6-.67-.21-.26-.37-.53-.46-.82-.33-1.09-.56-2.45-.67-4.08-.12-1.63-.2-3.09-.25-4.37,0-.33.14-.58.43-.75.28-.17.62-.25.99-.25.33,0,.6.06.82.18.21.12.37.34.46.67.99,3.6,2.46,6.28,4.4,8.06,1.94,1.77,4.05,2.66,6.32,2.66,1.61,0,2.99-.35,4.15-1.06,1.16-.71,2.07-1.67,2.73-2.88.66-1.21.99-2.57.99-4.08,0-1.8-.31-3.27-.92-4.4-.62-1.14-1.52-2.15-2.7-3.05-1.18-.9-2.65-1.87-4.4-2.91-1.89-1.14-3.75-2.32-5.57-3.55-1.82-1.23-3.33-2.67-4.51-4.33-1.18-1.66-1.78-3.69-1.78-6.11,0-2.56.6-4.82,1.81-6.78,1.21-1.96,2.97-3.53,5.29-4.69,2.32-1.16,5.11-1.74,8.38-1.74,1.7,0,3.25.18,4.65.53,1.4.35,2.52.72,3.37,1.1.43.14.77.38,1.03.71.26.33.46.73.6,1.21.24.99.5,2.15.78,3.48.28,1.33.43,2.67.43,4.05,0,.52-.38.78-1.14.78-.43,0-.83-.09-1.21-.28-.38-.19-.62-.43-.71-.71-.95-2.65-2.12-4.66-3.51-6.04-1.4-1.37-3.16-2.06-5.29-2.06-1.42,0-2.71.25-3.87.75-1.16.5-2.08,1.3-2.77,2.41-.69,1.11-1.03,2.57-1.03,4.37,0,1.28.44,2.47,1.31,3.59.88,1.11,2.06,2.18,3.55,3.2,1.49,1.02,3.16,2.07,5,3.16,1.94,1.18,3.69,2.41,5.25,3.69,1.56,1.28,2.79,2.73,3.69,4.37.9,1.63,1.35,3.59,1.35,5.86,0,2.98-.66,5.53-1.99,7.63-1.33,2.11-3.18,3.7-5.57,4.79-2.39,1.09-5.2,1.63-8.41,1.63Z"/><path d="m187.82,92.93c-.99,0-1.96-.32-2.91-.96-.95-.64-1.73-1.44-2.34-2.41-.62-.97-.92-1.93-.92-2.88,0-1.56.44-2.82,1.31-3.76.88-.95,2.24-1.8,4.08-2.56l6.89-2.91c.95-.38,1.51-.72,1.7-1.03.19-.31.31-.93.35-1.88l.14-4.33c.05-1.28-.26-2.34-.92-3.19s-1.63-1.28-2.91-1.28c-.66,0-1.34.13-2.02.39-.69.26-1.24.56-1.67.89-.24.19-.39.45-.46.78-.07.33-.11.69-.11,1.06,0,.24.01.51.04.82.02.31.04.56.04.75,0,.28-.32.63-.96,1.03-.64.4-1.37.77-2.2,1.1-.83.33-1.53.5-2.09.5-.28,0-.51-.08-.67-.25-.17-.17-.25-.39-.25-.67,0-.76.25-1.55.75-2.38.5-.83,1.24-1.67,2.24-2.52,1.14-.99,2.38-1.88,3.73-2.66,1.35-.78,2.67-1.38,3.98-1.81,1.3-.43,2.45-.64,3.44-.64,1.99,0,3.61.67,4.86,2.02,1.25,1.35,1.83,3.09,1.74,5.22l-.35,16.05c-.05,1.04.17,1.89.64,2.56.47.66,1.07.99,1.78.99,1.09,0,1.94-.28,2.56-.85.19-.19.36-.28.5-.28.24,0,.44.07.6.21.17.14.25.33.25.57,0,.57-.33,1.16-.99,1.77-.81.81-1.67,1.43-2.59,1.88s-1.81.67-2.66.67c-2.37,0-4.26-1.28-5.68-3.83h-.21c-1.56,1.33-3.03,2.3-4.4,2.91-1.37.61-2.79.92-4.26.92Zm3.69-3.83c.8,0,1.48-.13,2.02-.39.54-.26,1.03-.63,1.46-1.1.24-.24.41-.53.53-.89.12-.36.2-.91.25-1.67l.14-4.05c.05-.47.02-.82-.07-1.03-.1-.21-.28-.32-.57-.32-.1,0-.24.02-.43.07-.19.05-.45.14-.78.28-2.13.81-3.62,1.65-4.47,2.52-.85.88-1.28,1.83-1.28,2.88,0,1.28.34,2.21,1.03,2.8.69.59,1.41.89,2.17.89Z"/><path d="m211.61,92.15c-.38,0-.71-.07-.99-.21-.28-.14-.43-.35-.43-.64,0-.38.15-.65.46-.82.31-.17.7-.32,1.17-.46.71-.19,1.37-.45,1.99-.78.61-.33.92-.97.92-1.92v-15.62c0-1.18-.13-2.19-.39-3.02-.26-.83-.96-1.38-2.09-1.67-.19-.05-.36-.15-.5-.32-.14-.17-.21-.39-.21-.67,0-.61.21-.95.64-.99,1.66-.43,3.16-.95,4.51-1.56,1.35-.61,2.59-1.3,3.73-2.06.14-.09.29-.19.46-.28.17-.09.32-.14.46-.14.19,0,.32.06.39.18.07.12.11.27.11.46,0,.33-.06.97-.18,1.92-.12.95-.18,1.75-.18,2.41,0,.19.01.38.04.57.02.19.06.31.11.35,1.66-1.56,3.37-2.74,5.15-3.55,1.77-.8,3.77-1.21,6-1.21,2.37,0,4.33.92,5.89,2.77,1.56,1.85,2.34,4.24,2.34,7.17v15.34c0,.95.32,1.56.96,1.85.64.28,1.31.54,2.02.78.38.14.73.31,1.07.5.33.19.5.47.5.85,0,.33-.15.54-.46.64-.31.09-.6.14-.89.14-.95,0-1.74-.04-2.38-.11-.64-.07-1.25-.13-1.85-.18-.59-.05-1.31-.07-2.17-.07-.81,0-1.52.02-2.13.07-.62.05-1.24.11-1.88.18-.64.07-1.43.11-2.38.11-.24,0-.52-.05-.85-.14-.33-.09-.5-.31-.5-.64,0-.38.17-.66.5-.85.33-.19.69-.35,1.07-.5.71-.24,1.37-.5,1.99-.78.61-.28.92-.9.92-1.85v-14.7c0-1.99-.53-3.53-1.6-4.61-1.07-1.09-2.45-1.66-4.15-1.7-1.47,0-2.76.23-3.87.67-1.11.45-2.14,1.05-3.09,1.81-.19.19-.33.43-.43.71-.09.28-.14.54-.14.78v17.04c0,.95.31,1.57.92,1.88.62.31,1.25.56,1.92.75,1.04.33,1.56.76,1.56,1.28,0,.28-.12.5-.36.64-.24.14-.57.21-.99.21-.95,0-1.74-.04-2.38-.11-.64-.07-1.23-.13-1.78-.18-.54-.05-1.24-.07-2.09-.07-.8,0-1.51.02-2.13.07-.62.05-1.25.11-1.92.18-.66.07-1.47.11-2.41.11Z"/><path d="m265.07,106.14c-5.49,0-8.24-1.23-8.24-3.69,0-.85.37-1.67,1.1-2.45.73-.78,1.41-1.17,2.02-1.17.57,0,1.12.13,1.67.39.54.26,1.05.7,1.53,1.31.71.9,1.3,1.57,1.77,2.02.47.45,1.02.67,1.63.67,1.56,0,2.72-.98,3.48-2.95.76-1.96,1.14-4.79,1.14-8.48v-38.98c0-1.61-.34-2.74-1.03-3.41-.69-.66-1.91-1.18-3.66-1.56-1.37-.28-2.06-.76-2.06-1.42,0-.33.18-.57.53-.71.35-.14.79-.21,1.31-.21,1.18,0,2.26.02,3.23.07.97.05,1.9.1,2.8.14.9.05,1.87.07,2.91.07.9,0,1.73-.01,2.49-.04.76-.02,1.56-.06,2.41-.11.85-.05,1.87-.07,3.05-.07.52,0,.95.06,1.28.18.33.12.5.34.5.67,0,.38-.17.67-.5.89-.33.21-.85.39-1.56.53-1.8.43-2.95.97-3.44,1.63-.5.66-.75,1.77-.75,3.34v34.79c0,1.75-.28,3.47-.85,5.15-.57,1.68-1.29,3.25-2.17,4.72-.88,1.47-1.76,2.74-2.66,3.83-1.09,1.37-2.31,2.52-3.66,3.44-1.35.92-2.78,1.38-4.29,1.38Z"/><path d="m311.79,93.36c-.38,0-.57-.21-.57-.64,0-.52.06-1.24.18-2.17.12-.92.18-1.67.18-2.24v-.57c-1.66,1.7-3.44,2.99-5.36,3.87-1.92.88-3.99,1.31-6.21,1.31-1.47,0-2.82-.35-4.05-1.06-1.23-.71-2.19-1.74-2.88-3.09-.69-1.35-1.03-2.95-1.03-4.79v-14.06c0-1.04-.23-1.88-.67-2.52-.45-.64-1.22-1.12-2.31-1.46-.24-.09-.46-.22-.67-.39-.21-.17-.32-.44-.32-.82,0-.43.11-.72.32-.89.21-.17.46-.27.75-.32,1.75-.09,3.2-.25,4.33-.46,1.14-.21,2.41-.51,3.83-.89.19-.05.36-.08.5-.11.14-.02.28-.04.43-.04.57,0,.83.33.78.99-.14,1.09-.26,2-.36,2.73-.09.73-.14,1.65-.14,2.73v13.77c0,1.14.25,2.17.75,3.09.5.92,1.17,1.67,2.02,2.24.85.57,1.73.88,2.63.92,1.09,0,2.06-.08,2.91-.25.85-.17,1.68-.58,2.49-1.24.43-.33.96-.9,1.6-1.7.64-.8.96-1.92.96-3.34v-12.43c0-.95-.25-1.67-.75-2.17-.5-.5-1.09-.86-1.78-1.1-.69-.24-1.31-.38-1.88-.43-.47,0-.85-.09-1.14-.28-.28-.19-.43-.52-.43-.99s.15-.79.46-.96c.31-.17.67-.25,1.1-.25,1.8-.09,3.25-.19,4.37-.28,1.11-.09,2.08-.21,2.91-.35.83-.14,1.69-.33,2.59-.57.09-.05.22-.08.39-.11.17-.02.29-.04.39-.04.62,0,.92.26.92.78,0,.1-.01.21-.04.35-.02.14-.06.28-.11.43-.05.19-.11.6-.18,1.24-.07.64-.14,1.31-.21,2.02-.07.71-.11,1.28-.11,1.7v16.4c0,1.18.13,2.02.39,2.52.26.5.56.75.89.75s.82-.02,1.46-.07c.64-.05,1.1-.07,1.38-.07s.54.07.78.21c.24.14.35.43.35.85,0,.38-.09.65-.28.82-.19.17-.45.27-.78.32-1.99.24-3.74.62-5.25,1.14-1.52.52-2.84.99-3.98,1.42-.19.09-.44.2-.75.32-.31.12-.58.18-.82.18Z"/><path d="m332.87,92.93c-.99,0-1.96-.32-2.91-.96-.95-.64-1.73-1.44-2.34-2.41-.62-.97-.92-1.93-.92-2.88,0-1.56.44-2.82,1.31-3.76.88-.95,2.24-1.8,4.08-2.56l6.89-2.91c.95-.38,1.51-.72,1.7-1.03.19-.31.31-.93.35-1.88l.14-4.33c.05-1.28-.26-2.34-.92-3.19s-1.63-1.28-2.91-1.28c-.66,0-1.34.13-2.02.39-.69.26-1.24.56-1.67.89-.24.19-.39.45-.46.78-.07.33-.11.69-.11,1.06,0,.24.01.51.04.82.02.31.04.56.04.75,0,.28-.32.63-.96,1.03-.64.4-1.37.77-2.2,1.1-.83.33-1.53.5-2.09.5-.28,0-.51-.08-.67-.25-.17-.17-.25-.39-.25-.67,0-.76.25-1.55.75-2.38.5-.83,1.24-1.67,2.24-2.52,1.14-.99,2.38-1.88,3.73-2.66,1.35-.78,2.67-1.38,3.98-1.81,1.3-.43,2.45-.64,3.44-.64,1.99,0,3.61.67,4.86,2.02,1.25,1.35,1.83,3.09,1.74,5.22l-.35,16.05c-.05,1.04.17,1.89.64,2.56.47.66,1.07.99,1.78.99,1.09,0,1.94-.28,2.56-.85.19-.19.36-.28.5-.28.24,0,.44.07.6.21.17.14.25.33.25.57,0,.57-.33,1.16-.99,1.77-.81.81-1.67,1.43-2.59,1.88s-1.81.67-2.66.67c-2.37,0-4.26-1.28-5.68-3.83h-.21c-1.56,1.33-3.03,2.3-4.4,2.91-1.37.61-2.79.92-4.26.92Zm3.69-3.83c.8,0,1.48-.13,2.02-.39.54-.26,1.03-.63,1.46-1.1.24-.24.41-.53.53-.89.12-.36.2-.91.25-1.67l.14-4.05c.05-.47.02-.82-.07-1.03-.1-.21-.28-.32-.57-.32-.1,0-.24.02-.43.07-.19.05-.45.14-.78.28-2.13.81-3.62,1.65-4.47,2.52-.85.88-1.28,1.83-1.28,2.88,0,1.28.34,2.21,1.03,2.8.69.59,1.41.89,2.17.89Z"/><path d="m356.66,92.15c-.38,0-.71-.07-.99-.21-.28-.14-.43-.35-.43-.64,0-.38.15-.65.46-.82.31-.17.7-.32,1.17-.46.71-.19,1.37-.45,1.99-.78.61-.33.92-.97.92-1.92v-15.62c0-1.18-.13-2.19-.39-3.02-.26-.83-.96-1.38-2.09-1.67-.19-.05-.36-.15-.5-.32-.14-.17-.21-.39-.21-.67,0-.61.21-.95.64-.99,1.66-.43,3.16-.95,4.51-1.56,1.35-.61,2.59-1.3,3.73-2.06.14-.09.29-.19.46-.28.17-.09.32-.14.46-.14.19,0,.32.06.39.18.07.12.11.27.11.46,0,.33-.06.97-.18,1.92-.12.95-.18,1.75-.18,2.41,0,.19.01.38.04.57.02.19.06.31.11.35,1.66-1.56,3.37-2.74,5.15-3.55,1.77-.8,3.77-1.21,6-1.21,2.37,0,4.33.92,5.89,2.77,1.56,1.85,2.34,4.24,2.34,7.17v15.34c0,.95.32,1.56.96,1.85.64.28,1.31.54,2.02.78.38.14.73.31,1.07.5.33.19.5.47.5.85,0,.33-.15.54-.46.64-.31.09-.6.14-.89.14-.95,0-1.74-.04-2.38-.11-.64-.07-1.25-.13-1.85-.18-.59-.05-1.31-.07-2.17-.07-.81,0-1.52.02-2.13.07-.62.05-1.24.11-1.88.18-.64.07-1.43.11-2.38.11-.24,0-.52-.05-.85-.14-.33-.09-.5-.31-.5-.64,0-.38.17-.66.5-.85.33-.19.69-.35,1.07-.5.71-.24,1.37-.5,1.99-.78.61-.28.92-.9.92-1.85v-14.7c0-1.99-.53-3.53-1.6-4.61-1.07-1.09-2.45-1.66-4.15-1.7-1.47,0-2.76.23-3.87.67-1.11.45-2.14,1.05-3.09,1.81-.19.19-.33.43-.43.71-.09.28-.14.54-.14.78v17.04c0,.95.31,1.57.92,1.88.62.31,1.25.56,1.92.75,1.04.33,1.56.76,1.56,1.28,0,.28-.12.5-.36.64-.24.14-.57.21-.99.21-.95,0-1.74-.04-2.38-.11-.64-.07-1.23-.13-1.78-.18-.54-.05-1.24-.07-2.09-.07-.8,0-1.51.02-2.13.07-.62.05-1.25.11-1.92.18-.66.07-1.47.11-2.41.11Z"/><path d="m410.26,92.22c-.52,0-.96-.06-1.31-.18-.36-.12-.53-.34-.53-.67,0-.61.69-1.06,2.06-1.35,1.8-.33,3.12-.85,3.98-1.56.85-.71,1.28-1.87,1.28-3.48v-32.09c0-1.61-.33-2.76-.99-3.44-.66-.69-1.89-1.22-3.69-1.6-1.37-.28-2.06-.76-2.06-1.42,0-.33.17-.57.5-.71.33-.14.76-.21,1.28-.21,1.23,0,2.33.02,3.3.07.97.05,1.9.1,2.8.14.9.05,1.87.07,2.91.07s1.93-.01,2.8-.04c.88-.02,1.78-.06,2.7-.11.92-.05,1.98-.07,3.16-.07.57,0,1.02.06,1.35.18.33.12.5.34.5.67,0,.38-.18.67-.53.89-.35.21-.86.39-1.53.53-1.85.43-3.14.97-3.87,1.63-.73.66-1.1,1.8-1.1,3.41v32.09c0,1.56.45,2.7,1.35,3.41.9.71,2.22,1.25,3.98,1.63.71.14,1.23.31,1.56.5.33.19.5.47.5.85,0,.28-.15.5-.46.64-.31.14-.75.21-1.31.21-1.18,0-2.27-.04-3.27-.11-.99-.07-1.95-.13-2.88-.18-.92-.05-1.91-.07-2.95-.07-1.14,0-2.19.02-3.16.07-.97.05-1.98.11-3.02.18-1.04.07-2.15.11-3.34.11Z"/><path d="m442.64,92.93c-1.52,0-2.95-.21-4.3-.64-1.35-.43-2.52-1.04-3.51-1.85-.33-.61-.57-1.58-.71-2.91-.14-1.32-.21-2.53-.21-3.62,0-.47.36-.71,1.07-.71.28,0,.53.06.75.18.21.12.34.27.39.46.71,2.23,1.7,3.91,2.98,5.04,1.28,1.14,2.67,1.7,4.19,1.7,1.33,0,2.41-.44,3.27-1.31.85-.88,1.28-1.93,1.28-3.16s-.45-2.35-1.35-3.23c-.9-.88-2.27-1.88-4.12-3.02-1.52-.9-2.82-1.79-3.91-2.66-1.09-.88-1.92-1.85-2.48-2.91-.57-1.06-.85-2.28-.85-3.66,0-1.66.41-3.12,1.24-4.4.83-1.28,2-2.29,3.51-3.05s3.34-1.14,5.47-1.14c1.51,0,2.8.15,3.87.46,1.07.31,1.83.63,2.31.96.38.52.7,1.37.96,2.56.26,1.18.39,2.37.39,3.55,0,.38-.31.57-.92.57-.28,0-.58-.07-.89-.21-.31-.14-.51-.33-.6-.57-.62-1.66-1.38-2.91-2.31-3.76-.92-.85-2.05-1.28-3.37-1.28-1.14,0-2.15.34-3.05,1.03-.9.69-1.35,1.67-1.35,2.95,0,1.09.39,2.05,1.17,2.88.78.83,2.02,1.72,3.73,2.66,2.84,1.56,4.93,3.04,6.28,4.44,1.35,1.4,2.02,3.25,2.02,5.57,0,2.75-.98,4.95-2.95,6.6-1.96,1.66-4.63,2.49-7.99,2.49Z"/><path d="m458.4,92.15c-.33,0-.65-.05-.96-.14-.31-.09-.46-.31-.46-.64,0-.38.17-.65.5-.82.33-.17.71-.34,1.14-.53.71-.24,1.37-.5,1.99-.78.61-.28.92-.92.92-1.92v-35.14c0-1.37-.23-2.52-.67-3.44-.45-.92-1.27-1.5-2.45-1.74-.38-.09-.57-.43-.57-.99,0-.52.17-.83.5-.92,1.23-.24,2.39-.54,3.48-.92,1.09-.38,2.11-.76,3.05-1.14.95-.38,1.8-.71,2.56-.99.28-.09.5-.14.64-.14s.25.07.32.21c.07.14.11.28.11.43,0,.38-.07,1.18-.21,2.41-.14,1.23-.21,3.08-.21,5.54v36.85c0,.95.31,1.57.92,1.88.61.31,1.28.58,1.99.82.43.14.8.31,1.14.5.33.19.5.47.5.85,0,.28-.15.47-.46.57-.31.09-.63.14-.96.14-.9,0-1.68-.02-2.34-.07-.66-.05-1.3-.09-1.92-.14-.62-.05-1.35-.07-2.2-.07-.8,0-1.51.02-2.13.07-.62.05-1.23.11-1.85.18-.62.07-1.4.11-2.34.11Z"/><path d="m482.47,92.93c-.99,0-1.96-.32-2.91-.96-.95-.64-1.73-1.44-2.34-2.41-.62-.97-.92-1.93-.92-2.88,0-1.56.44-2.82,1.31-3.76.88-.95,2.24-1.8,4.08-2.56l6.89-2.91c.95-.38,1.51-.72,1.7-1.03.19-.31.31-.93.35-1.88l.14-4.33c.05-1.28-.26-2.34-.92-3.19s-1.63-1.28-2.91-1.28c-.66,0-1.34.13-2.02.39-.69.26-1.24.56-1.67.89-.24.19-.39.45-.46.78-.07.33-.11.69-.11,1.06,0,.24.01.51.04.82.02.31.04.56.04.75,0,.28-.32.63-.96,1.03-.64.4-1.37.77-2.2,1.1-.83.33-1.53.5-2.09.5-.28,0-.51-.08-.67-.25-.17-.17-.25-.39-.25-.67,0-.76.25-1.55.75-2.38.5-.83,1.24-1.67,2.24-2.52,1.14-.99,2.38-1.88,3.73-2.66,1.35-.78,2.67-1.38,3.98-1.81,1.3-.43,2.45-.64,3.44-.64,1.99,0,3.61.67,4.86,2.02,1.25,1.35,1.83,3.09,1.74,5.22l-.35,16.05c-.05,1.04.17,1.89.64,2.56.47.66,1.07.99,1.78.99,1.09,0,1.94-.28,2.56-.85.19-.19.36-.28.5-.28.24,0,.44.07.6.21.17.14.25.33.25.57,0,.57-.33,1.16-.99,1.77-.81.81-1.67,1.43-2.59,1.88s-1.81.67-2.66.67c-2.37,0-4.26-1.28-5.68-3.83h-.21c-1.56,1.33-3.03,2.3-4.4,2.91-1.37.61-2.79.92-4.26.92Zm3.69-3.83c.8,0,1.48-.13,2.02-.39.54-.26,1.03-.63,1.46-1.1.24-.24.41-.53.53-.89.12-.36.2-.91.25-1.67l.14-4.05c.05-.47.02-.82-.07-1.03-.1-.21-.28-.32-.57-.32-.1,0-.24.02-.43.07-.19.05-.45.14-.78.28-2.13.81-3.62,1.65-4.47,2.52-.85.88-1.28,1.83-1.28,2.88,0,1.28.34,2.21,1.03,2.8.69.59,1.41.89,2.17.89Z"/><path d="m506.25,92.15c-.38,0-.71-.07-.99-.21-.28-.14-.43-.35-.43-.64,0-.38.15-.65.46-.82.31-.17.7-.32,1.17-.46.71-.19,1.37-.45,1.99-.78.61-.33.92-.97.92-1.92v-15.62c0-1.18-.13-2.19-.39-3.02-.26-.83-.96-1.38-2.09-1.67-.19-.05-.36-.15-.5-.32-.14-.17-.21-.39-.21-.67,0-.61.21-.95.64-.99,1.66-.43,3.16-.95,4.51-1.56,1.35-.61,2.59-1.3,3.73-2.06.14-.09.29-.19.46-.28.17-.09.32-.14.46-.14.19,0,.32.06.39.18.07.12.11.27.11.46,0,.33-.06.97-.18,1.92-.12.95-.18,1.75-.18,2.41,0,.19.01.38.04.57.02.19.06.31.11.35,1.66-1.56,3.37-2.74,5.15-3.55,1.77-.8,3.77-1.21,6-1.21,2.37,0,4.33.92,5.89,2.77,1.56,1.85,2.34,4.24,2.34,7.17v15.34c0,.95.32,1.56.96,1.85.64.28,1.31.54,2.02.78.38.14.73.31,1.07.5.33.19.5.47.5.85,0,.33-.15.54-.46.64-.31.09-.6.14-.89.14-.95,0-1.74-.04-2.38-.11-.64-.07-1.25-.13-1.85-.18-.59-.05-1.31-.07-2.17-.07-.81,0-1.52.02-2.13.07-.62.05-1.24.11-1.88.18-.64.07-1.43.11-2.38.11-.24,0-.52-.05-.85-.14-.33-.09-.5-.31-.5-.64,0-.38.17-.66.5-.85.33-.19.69-.35,1.07-.5.71-.24,1.37-.5,1.99-.78.61-.28.92-.9.92-1.85v-14.7c0-1.99-.53-3.53-1.6-4.61-1.07-1.09-2.45-1.66-4.15-1.7-1.47,0-2.76.23-3.87.67-1.11.45-2.14,1.05-3.09,1.81-.19.19-.33.43-.43.71-.09.28-.14.54-.14.78v17.04c0,.95.31,1.57.92,1.88.62.31,1.25.56,1.92.75,1.04.33,1.56.76,1.56,1.28,0,.28-.12.5-.36.64-.24.14-.57.21-.99.21-.95,0-1.74-.04-2.38-.11-.64-.07-1.23-.13-1.78-.18-.54-.05-1.24-.07-2.09-.07-.8,0-1.51.02-2.13.07-.62.05-1.25.11-1.92.18-.66.07-1.47.11-2.41.11Z"/><path d="m566.96,93.29c-.09,0-.26-.12-.5-.35s-.35-.4-.35-.5c.05-.57.12-1.25.21-2.06.09-.8.14-1.49.14-2.06v-.43c-.8,1.23-2,2.38-3.58,3.44-1.59,1.06-3.49,1.6-5.72,1.6-2.7,0-5.04-.7-7.03-2.09-1.99-1.4-3.54-3.21-4.65-5.43-1.11-2.22-1.67-4.59-1.67-7.1,0-2.89.66-5.56,1.99-8.02,1.32-2.46,3.22-4.44,5.68-5.93,2.46-1.49,5.35-2.24,8.66-2.24.85,0,1.74.08,2.66.25.92.17,1.64.34,2.17.53.52.14.83.21.92.21.33,0,.5-.5.5-1.49v-9.44c0-1.85-.28-3.12-.85-3.83-.57-.71-1.4-1.16-2.48-1.35-.47-.09-.71-.43-.71-.99,0-.47.21-.78.64-.92,1.99-.47,3.69-.97,5.11-1.49,1.42-.52,2.56-.95,3.41-1.28.33-.19.59-.3.78-.32.19-.02.33-.04.43-.04.38,0,.57.19.57.57,0,.14-.02.52-.07,1.14-.05.62-.12,1.49-.21,2.63-.1,1.14-.14,2.53-.14,4.19l-.14,33.44c0,1.61.12,2.77.36,3.48.24.71.64,1.06,1.21,1.06.24,0,.59-.02,1.06-.07.47-.05,1.11-.09,1.92-.14.76-.05,1.14.19,1.14.71,0,.33-.12.65-.36.96-.24.31-.47.46-.71.46-1.47.19-2.95.47-4.44.85-1.49.38-3.07.92-4.72,1.63-.38.19-.64.31-.78.35-.14.05-.28.07-.43.07Zm-6.89-4.47c1.04,0,2.14-.27,3.3-.82,1.16-.54,2.14-1.27,2.95-2.17v-13.85c0-1.09-.34-2.19-1.03-3.3-.69-1.11-1.62-2.01-2.8-2.7-1.18-.69-2.53-1.03-4.05-1.03-1.09,0-2.25.37-3.48,1.1-1.23.73-2.27,1.95-3.12,3.66-.85,1.7-1.28,4-1.28,6.89,0,2.41.33,4.41.99,6,.66,1.59,1.5,2.83,2.52,3.73,1.02.9,2.07,1.54,3.16,1.92,1.09.38,2.03.57,2.84.57Z"/><path d="m178.57,185.76c-.81,0-1.5-.1-2.07-.3-.57-.2-.86-.54-.86-1.01,0-.87,1.04-1.52,3.13-1.92,2.56-.47,4.29-1.23,5.2-2.27.91-1.04,1.36-2.74,1.36-5.1v-45.55c0-2.29-.47-3.9-1.41-4.85-.94-.94-2.73-1.68-5.35-2.22-1.95-.4-2.93-1.08-2.93-2.02,0-.47.25-.81.76-1.01s1.13-.3,1.87-.3c1.75,0,3.28.03,4.6.1,1.31.07,2.59.12,3.84.15,1.25.03,2.58.05,3.99.05,1.28,0,2.47-.02,3.59-.05,1.11-.03,2.29-.07,3.54-.1,1.25-.03,2.71-.05,4.39-.05.81,0,1.43.09,1.87.25.44.17.66.49.66.96,0,.54-.24.96-.71,1.26-.47.3-1.21.56-2.22.76-2.56.61-4.16,1.45-4.8,2.53-.64,1.08-.96,2.59-.96,4.54v19.49c0,.34.05.72.15,1.16.1.44.29.66.56.66.34,0,.76-.18,1.26-.56.51-.37.96-.76,1.36-1.16l19.9-20.71c.54-.61.96-1.16,1.26-1.67.3-.5.45-.99.45-1.46,0-1.28-.91-2.12-2.73-2.52-1.01-.27-1.73-.56-2.17-.86-.44-.3-.66-.72-.66-1.26,0-.4.25-.71.76-.91.5-.2,1.13-.3,1.87-.3h5.96c2.09,0,4.28-.03,6.57-.1,2.29-.07,4.44-.13,6.46-.2,2.02-.07,3.57-.1,4.65-.1.67,0,1.23.12,1.67.35.44.24.66.52.66.86,0,.54-.29.98-.86,1.31-.57.34-1.36.61-2.37.81-2.76.47-5.45,1.23-8.08,2.27-2.63,1.04-5.05,2.44-7.27,4.19-2.29,1.89-4.44,3.77-6.46,5.66-2.02,1.89-4.01,3.82-5.96,5.81-1.95,1.99-4.08,4.19-6.36,6.62-.61.54-.47,1.28.4,2.22l24.34,26.36c1.28,1.41,2.37,2.54,3.28,3.38.91.84,1.94,1.55,3.08,2.12,1.14.57,2.63,1.06,4.44,1.46,1.01.27,1.82.52,2.42.76.61.24.91.62.91,1.16,0,.4-.3.72-.91.96-.61.24-1.41.35-2.42.35-1.95,0-3.74-.05-5.35-.15s-3.2-.2-4.75-.3c-1.55-.1-3.33-.15-5.35-.15-1.62,0-3.07.05-4.34.15-1.28.1-3.06.15-5.35.15-.74,0-1.36-.1-1.87-.3-.51-.2-.76-.54-.76-1.01,0-.81.84-1.41,2.52-1.82,2.15-.47,3.23-1.25,3.23-2.32,0-.4-.15-.82-.45-1.26-.3-.44-.66-.92-1.06-1.46l-19.7-22.12c-.4-.4-.83-.77-1.26-1.11-.44-.34-.79-.5-1.06-.5s-.44.22-.5.66c-.07.44-.1.86-.1,1.26,0,3.17.03,6.2.1,9.09.07,2.9.17,6.2.3,9.9.07,1.41.27,2.66.61,3.74.34,1.08.94,1.97,1.82,2.68.87.71,2.15,1.26,3.84,1.67,1.01.2,1.78.44,2.32.71.54.27.81.67.81,1.21,0,.4-.29.72-.86.96-.57.24-1.26.35-2.07.35-1.89,0-3.42-.07-4.6-.2-1.18-.14-2.26-.27-3.23-.4-.98-.13-2.11-.2-3.38-.2-1.55,0-2.95.07-4.19.2-1.25.13-2.56.27-3.94.4-1.38.13-3.05.2-5,.2Z"/><path d="m256.95,186.67c-1.41,0-2.79-.45-4.14-1.36-1.35-.91-2.46-2.05-3.33-3.43-.88-1.38-1.31-2.74-1.31-4.09,0-2.22.62-4.01,1.87-5.35,1.25-1.35,3.18-2.56,5.81-3.64l9.8-4.14c1.35-.54,2.15-1.03,2.42-1.46.27-.44.44-1.33.5-2.68l.2-6.16c.07-1.82-.37-3.33-1.31-4.55-.94-1.21-2.32-1.82-4.14-1.82-.94,0-1.9.19-2.88.56-.98.37-1.77.79-2.37,1.26-.34.27-.56.64-.66,1.11-.1.47-.15.98-.15,1.51,0,.34.02.72.05,1.16.03.44.05.79.05,1.06,0,.4-.45.89-1.36,1.46-.91.57-1.95,1.1-3.13,1.57-1.18.47-2.17.71-2.98.71-.4,0-.72-.12-.96-.35-.24-.23-.35-.56-.35-.96,0-1.08.35-2.2,1.06-3.38.71-1.18,1.77-2.37,3.18-3.59,1.62-1.41,3.38-2.68,5.3-3.79s3.8-1.97,5.66-2.58c1.85-.61,3.49-.91,4.9-.91,2.83,0,5.13.96,6.92,2.88,1.78,1.92,2.61,4.39,2.47,7.42l-.5,22.83c-.07,1.48.24,2.69.91,3.64.67.94,1.51,1.41,2.52,1.41,1.55,0,2.76-.4,3.64-1.21.27-.27.51-.4.71-.4.34,0,.62.1.86.3.23.2.35.47.35.81,0,.81-.47,1.65-1.41,2.52-1.15,1.15-2.37,2.04-3.69,2.68-1.31.64-2.58.96-3.79.96-3.37,0-6.06-1.82-8.08-5.45h-.3c-2.22,1.89-4.31,3.27-6.26,4.14-1.95.87-3.97,1.31-6.06,1.31Zm5.25-5.45c1.14,0,2.1-.18,2.88-.56.77-.37,1.46-.89,2.07-1.57.34-.34.59-.76.76-1.26.17-.51.29-1.3.35-2.37l.2-5.76c.07-.67.03-1.16-.1-1.46-.14-.3-.4-.45-.81-.45-.14,0-.34.03-.61.1-.27.07-.64.2-1.11.4-3.03,1.15-5.15,2.34-6.36,3.59-1.21,1.25-1.82,2.61-1.82,4.09,0,1.82.49,3.15,1.46,3.99.98.84,2,1.26,3.08,1.26Z"/><path d="m290.28,185.55c-.47,0-.93-.07-1.36-.2-.44-.13-.66-.44-.66-.91,0-.54.23-.92.71-1.16.47-.23,1.01-.49,1.62-.76,1.01-.34,1.95-.71,2.83-1.11.88-.4,1.31-1.31,1.31-2.73v-50c0-1.95-.32-3.59-.96-4.9-.64-1.31-1.8-2.14-3.48-2.47-.54-.13-.81-.61-.81-1.41,0-.74.24-1.18.71-1.31,1.75-.34,3.4-.77,4.95-1.31,1.55-.54,3-1.08,4.34-1.62,1.35-.54,2.56-1.01,3.64-1.41.4-.13.71-.2.91-.2s.35.1.45.3c.1.2.15.4.15.61,0,.54-.1,1.68-.3,3.43-.2,1.75-.3,4.38-.3,7.88v52.42c0,1.35.44,2.24,1.31,2.68.88.44,1.82.83,2.83,1.16.61.2,1.14.44,1.62.71.47.27.71.67.71,1.21,0,.4-.22.67-.66.81-.44.13-.89.2-1.36.2-1.28,0-2.39-.03-3.33-.1-.94-.07-1.85-.13-2.73-.2-.88-.07-1.92-.1-3.13-.1-1.15,0-2.16.03-3.03.1-.88.07-1.75.15-2.63.25-.88.1-1.99.15-3.33.15Z"/><path d="m319.16,213.94c-1.48,0-2.86-.42-4.14-1.26-1.28-.84-1.92-2.04-1.92-3.59,0-1.28.3-2.42.91-3.43.61-1.01,1.51-1.51,2.73-1.51.88,0,1.73.12,2.58.35.84.23,1.6.35,2.27.35.67-.07,1.18-.22,1.51-.45.34-.24.67-.66,1.01-1.26.67-1.08,1.4-2.34,2.17-3.79.77-1.45,1.6-3.12,2.47-5,.87-1.89,1.78-4.01,2.73-6.36.4-1.01.61-2.09.61-3.23,0-.67-.07-1.31-.2-1.92-.14-.61-.34-1.21-.61-1.82l-11.92-29.09c-.54-1.28-1.18-2.39-1.92-3.33-.74-.94-1.68-1.58-2.83-1.92-.54-.27-1.03-.54-1.46-.81-.44-.27-.66-.67-.66-1.21,0-.4.27-.66.81-.76.54-.1.98-.15,1.31-.15,1.48,0,2.63.04,3.43.1.81.07,1.55.14,2.22.2.67.07,1.55.1,2.63.1,1.28,0,2.29-.03,3.03-.1.74-.07,1.53-.13,2.37-.2.84-.07,1.97-.1,3.38-.1.47,0,.94.09,1.41.25.47.17.71.45.71.86,0,.54-.3.99-.91,1.36-.61.37-1.18.66-1.72.86-.74.2-1.3.56-1.67,1.06-.37.51-.55,1.3-.55,2.37,0,.47.1,1.01.3,1.62s.44,1.21.71,1.82l7.47,18.48c.13.34.3.51.5.51.13,0,.27-.17.4-.51l6.36-17.47c.2-.47.37-1.09.5-1.87.13-.77.2-1.43.2-1.97,0-1.21-.24-2.1-.71-2.68-.47-.57-1.01-.99-1.62-1.26-.54-.27-1.13-.59-1.77-.96-.64-.37-.96-.82-.96-1.36,0-.4.25-.69.76-.86.5-.17.96-.25,1.36-.25,1.21,0,2.32.07,3.33.2,1.01.14,2.29.2,3.84.2,1.08,0,1.92-.03,2.52-.1.61-.07,1.18-.13,1.72-.2.54-.07,1.25-.1,2.12-.1.34,0,.77.05,1.31.15.54.1.81.35.81.76,0,.54-.22.94-.66,1.21-.44.27-.93.54-1.46.81-1.08.34-2.17,1.11-3.28,2.32-1.11,1.21-2,2.63-2.68,4.24l-14.24,33.94c-.2.61-.62,1.68-1.26,3.23-.64,1.55-1.4,3.37-2.27,5.45-.88,2.09-1.8,4.29-2.78,6.62-.98,2.32-1.94,4.56-2.88,6.72-.67,1.55-1.67,2.73-2.98,3.54-1.31.81-2.81,1.21-4.49,1.21Z"/><path d="m368.05,186.67c-1.41,0-2.79-.45-4.14-1.36-1.35-.91-2.46-2.05-3.33-3.43-.88-1.38-1.31-2.74-1.31-4.09,0-2.22.62-4.01,1.87-5.35,1.25-1.35,3.18-2.56,5.81-3.64l9.8-4.14c1.35-.54,2.15-1.03,2.42-1.46.27-.44.44-1.33.5-2.68l.2-6.16c.07-1.82-.37-3.33-1.31-4.55-.94-1.21-2.32-1.82-4.14-1.82-.94,0-1.9.19-2.88.56-.98.37-1.77.79-2.37,1.26-.34.27-.56.64-.66,1.11-.1.47-.15.98-.15,1.51,0,.34.02.72.05,1.16.03.44.05.79.05,1.06,0,.4-.45.89-1.36,1.46-.91.57-1.95,1.1-3.13,1.57-1.18.47-2.17.71-2.98.71-.4,0-.72-.12-.96-.35-.24-.23-.35-.56-.35-.96,0-1.08.35-2.2,1.06-3.38.71-1.18,1.77-2.37,3.18-3.59,1.62-1.41,3.38-2.68,5.3-3.79s3.8-1.97,5.66-2.58c1.85-.61,3.49-.91,4.9-.91,2.83,0,5.13.96,6.92,2.88,1.78,1.92,2.61,4.39,2.47,7.42l-.5,22.83c-.07,1.48.24,2.69.91,3.64.67.94,1.51,1.41,2.52,1.41,1.55,0,2.76-.4,3.64-1.21.27-.27.51-.4.71-.4.34,0,.62.1.86.3.23.2.35.47.35.81,0,.81-.47,1.65-1.41,2.52-1.15,1.15-2.37,2.04-3.69,2.68-1.31.64-2.58.96-3.79.96-3.37,0-6.06-1.82-8.08-5.45h-.3c-2.22,1.89-4.31,3.27-6.26,4.14-1.95.87-3.97,1.31-6.06,1.31Zm5.25-5.45c1.14,0,2.1-.18,2.88-.56.77-.37,1.46-.89,2.07-1.57.34-.34.59-.76.76-1.26.17-.51.29-1.3.35-2.37l.2-5.76c.07-.67.03-1.16-.1-1.46-.14-.3-.4-.45-.81-.45-.14,0-.34.03-.61.1-.27.07-.64.2-1.11.4-3.03,1.15-5.15,2.34-6.36,3.59-1.21,1.25-1.82,2.61-1.82,4.09,0,1.82.49,3.15,1.46,3.99.98.84,2,1.26,3.08,1.26Z"/><path d="m401.88,185.55c-.54,0-1.01-.1-1.41-.3-.4-.2-.61-.5-.61-.91,0-.54.22-.92.66-1.16.44-.24.99-.45,1.67-.66,1.01-.27,1.95-.64,2.83-1.11.88-.47,1.31-1.38,1.31-2.73v-22.22c0-1.68-.19-3.11-.56-4.29-.37-1.18-1.36-1.97-2.98-2.37-.27-.07-.5-.22-.71-.45-.2-.24-.3-.56-.3-.96,0-.87.3-1.35.91-1.41,2.36-.61,4.49-1.35,6.41-2.22,1.92-.87,3.69-1.85,5.3-2.93.2-.13.42-.27.66-.4.24-.13.45-.2.66-.2.27,0,.46.09.56.25.1.17.15.39.15.66,0,.47-.08,1.38-.25,2.73-.17,1.35-.25,2.49-.25,3.43,0,.27.02.54.05.81.03.27.08.44.15.51,2.36-2.22,4.8-3.9,7.32-5.05,2.53-1.14,5.37-1.72,8.54-1.72,3.37,0,6.16,1.31,8.38,3.94,2.22,2.63,3.33,6.03,3.33,10.2v21.82c0,1.35.45,2.22,1.36,2.63.91.4,1.87.77,2.88,1.11.54.2,1.04.44,1.51.71.47.27.71.67.71,1.21,0,.47-.22.77-.66.91-.44.13-.86.2-1.26.2-1.35,0-2.47-.05-3.38-.15s-1.79-.18-2.63-.25c-.84-.07-1.87-.1-3.08-.1-1.15,0-2.16.03-3.03.1-.88.07-1.77.15-2.68.25s-2.04.15-3.38.15c-.34,0-.74-.07-1.21-.2-.47-.13-.71-.44-.71-.91,0-.54.24-.94.71-1.21.47-.27.98-.5,1.52-.71,1.01-.34,1.95-.71,2.83-1.11.87-.4,1.31-1.28,1.31-2.63v-20.91c0-2.83-.76-5.02-2.27-6.56-1.51-1.55-3.48-2.36-5.91-2.42-2.09,0-3.92.32-5.5.96-1.58.64-3.05,1.5-4.39,2.58-.27.27-.47.61-.61,1.01-.14.4-.2.77-.2,1.11v24.24c0,1.35.44,2.24,1.31,2.68.88.44,1.78.79,2.73,1.06,1.48.47,2.22,1.08,2.22,1.82,0,.4-.17.71-.5.91-.34.2-.81.3-1.41.3-1.35,0-2.47-.05-3.38-.15-.91-.1-1.75-.18-2.52-.25-.78-.07-1.77-.1-2.98-.1-1.15,0-2.16.03-3.03.1-.88.07-1.79.15-2.73.25-.94.1-2.09.15-3.43.15Z"/><path d="m464.4,186.67c-1.41,0-2.79-.45-4.14-1.36-1.35-.91-2.46-2.05-3.33-3.43-.88-1.38-1.31-2.74-1.31-4.09,0-2.22.62-4.01,1.87-5.35,1.25-1.35,3.18-2.56,5.81-3.64l9.8-4.14c1.35-.54,2.15-1.03,2.42-1.46.27-.44.44-1.33.5-2.68l.2-6.16c.07-1.82-.37-3.33-1.31-4.55-.94-1.21-2.32-1.82-4.14-1.82-.94,0-1.9.19-2.88.56-.98.37-1.77.79-2.37,1.26-.34.27-.56.64-.66,1.11-.1.47-.15.98-.15,1.51,0,.34.02.72.05,1.16.03.44.05.79.05,1.06,0,.4-.45.89-1.36,1.46-.91.57-1.95,1.1-3.13,1.57-1.18.47-2.17.71-2.98.71-.4,0-.72-.12-.96-.35-.24-.23-.35-.56-.35-.96,0-1.08.35-2.2,1.06-3.38.71-1.18,1.77-2.37,3.18-3.59,1.62-1.41,3.38-2.68,5.3-3.79s3.8-1.97,5.66-2.58c1.85-.61,3.49-.91,4.9-.91,2.83,0,5.13.96,6.92,2.88,1.78,1.92,2.61,4.39,2.47,7.42l-.5,22.83c-.07,1.48.24,2.69.91,3.64.67.94,1.51,1.41,2.52,1.41,1.55,0,2.76-.4,3.64-1.21.27-.27.51-.4.71-.4.34,0,.62.1.86.3.23.2.35.47.35.81,0,.81-.47,1.65-1.41,2.52-1.15,1.15-2.37,2.04-3.69,2.68-1.31.64-2.58.96-3.79.96-3.37,0-6.06-1.82-8.08-5.45h-.3c-2.22,1.89-4.31,3.27-6.26,4.14-1.95.87-3.97,1.31-6.06,1.31Zm5.25-5.45c1.14,0,2.1-.18,2.88-.56.77-.37,1.46-.89,2.07-1.57.34-.34.59-.76.76-1.26.17-.51.29-1.3.35-2.37l.2-5.76c.07-.67.03-1.16-.1-1.46-.14-.3-.4-.45-.81-.45-.14,0-.34.03-.61.1-.27.07-.64.2-1.11.4-3.03,1.15-5.15,2.34-6.36,3.59-1.21,1.25-1.82,2.61-1.82,4.09,0,1.82.49,3.15,1.46,3.99.98.84,2,1.26,3.08,1.26Z"/><path d="m520.15,185.66c-.88,0-1.57-.08-2.07-.25-.5-.17-.76-.49-.76-.96s.29-.82.86-1.06c.57-.23,1.36-.49,2.37-.76,1.62-.4,2.98-1.25,4.09-2.52,1.11-1.28,1.83-3.06,2.17-5.35.67-5.05,1.28-10.15,1.82-15.3.54-5.15,1.01-10.06,1.41-14.75.4-4.68.67-8.84.81-12.47v-1.62c0-.61-.04-1.18-.1-1.72,0-.74-.12-1.43-.35-2.07-.24-.64-.72-1.19-1.46-1.67-1.08-.87-2.16-1.5-3.23-1.87-1.08-.37-2.29-.69-3.64-.96-.74-.13-1.33-.39-1.77-.76-.44-.37-.66-.79-.66-1.26,0-.61.3-.98.91-1.11.61-.13,1.38-.2,2.32-.2.81,0,1.92.03,3.33.1,1.41.07,2.96.15,4.65.25,1.68.1,3.28.19,4.8.25,1.51.07,2.78.1,3.79.1.47,0,.91.15,1.31.45.4.3.67.72.81,1.26.34,1.21.69,2.46,1.06,3.74.37,1.28.79,2.59,1.26,3.94l15.55,38.68c.2.4.52.64.96.71.44.07.76-.1.96-.5l17.98-38.68c.4-1.55.76-3.05,1.06-4.49.3-1.45.59-2.68.86-3.69.2-.87.61-1.31,1.21-1.31h3.84c2.29,0,4.71-.15,7.27-.45,2.56-.3,4.51-.45,5.86-.45.47,0,.97.08,1.51.25.54.17.81.49.81.96,0,.54-.2.94-.61,1.21-.4.27-1.04.57-1.92.91-.74.27-1.55.57-2.42.91-.88.34-1.68.67-2.42,1.01-1.08.47-1.92,1.1-2.53,1.87-.61.77-.88,1.8-.81,3.08,0,4.78.1,9.14.3,13.08s.39,7.69.56,11.26c.17,3.57.39,7.14.66,10.71.27,3.57.5,7.37.71,11.41.13,1.95.84,3.48,2.12,4.6,1.28,1.11,3.1,1.9,5.45,2.37.94.2,1.67.44,2.17.71.5.27.76.67.76,1.21,0,.4-.24.71-.71.91-.47.2-1.11.3-1.92.3-1.68,0-3.23-.05-4.65-.15-1.41-.1-2.81-.19-4.19-.25-1.38-.07-2.81-.1-4.29-.1-1.35,0-2.59.03-3.74.1-1.15.07-2.36.15-3.64.25-1.28.1-2.79.15-4.54.15-.74,0-1.36-.08-1.87-.25-.5-.17-.76-.49-.76-.96s.25-.87.76-1.21c.51-.34,1.23-.57,2.17-.71,2.15-.34,3.64-1.03,4.44-2.07.81-1.04,1.21-2.68,1.21-4.9-.07-4.65-.15-8.95-.25-12.93-.1-3.97-.25-7.89-.45-11.77-.2-3.87-.4-7.96-.61-12.27,0-.61-.15-.89-.45-.86-.3.03-.62.35-.96.96l-21.82,46.86c-.2.54-.57.79-1.11.76-.54-.03-.88-.29-1.01-.76-2.9-7.88-5.94-15.64-9.14-23.28-3.2-7.64-6.55-15.64-10.05-23.99-.2-.4-.49-.57-.86-.51-.37.07-.59.34-.66.81-.47,4.24-.89,8.35-1.26,12.32-.37,3.97-.64,7.91-.81,11.82-.17,3.91-.25,7.95-.25,12.12,0,1.89.59,3.52,1.77,4.9,1.18,1.38,2.88,2.31,5.1,2.78,1.01.2,1.8.44,2.37.71.57.27.86.67.86,1.21,0,.4-.27.71-.81.91-.54.2-1.21.3-2.02.3-1.82,0-3.2-.05-4.14-.15-.94-.1-1.78-.17-2.52-.2-.74-.03-1.79-.05-3.13-.05s-2.41.03-3.38.1c-.98.07-1.95.13-2.93.2-.98.07-2.11.1-3.38.1Z"/><path d="m611.25,185.55c-.54,0-.99-.1-1.36-.3-.37-.2-.56-.5-.56-.91,0-.54.22-.92.66-1.16.44-.24.92-.42,1.46-.56,1.55-.4,2.69-.84,3.43-1.31.74-.47,1.11-1.31,1.11-2.52v-21.82c0-2.02-.34-3.65-1.01-4.9-.67-1.25-1.85-2-3.53-2.27-.34-.07-.59-.22-.76-.45-.17-.24-.25-.59-.25-1.06,0-.81.3-1.25.91-1.31,2.96-.67,5.5-1.57,7.63-2.68s3.72-2,4.8-2.68c.74-.47,1.28-.71,1.62-.71.54,0,.81.27.81.81,0,.74-.09,1.92-.25,3.53-.17,1.62-.34,3.37-.5,5.25-.17,1.89-.25,3.64-.25,5.25v23.03c0,1.08.37,1.89,1.11,2.42.74.54,1.88,1.01,3.43,1.41.54.14,1.03.32,1.46.56.44.24.66.62.66,1.16,0,.81-.61,1.21-1.82,1.21-1.28,0-2.42-.05-3.43-.15s-1.97-.18-2.88-.25c-.91-.07-1.97-.1-3.18-.1-1.15,0-2.19.03-3.13.1-.94.07-1.87.15-2.78.25-.91.1-2.04.15-3.38.15Zm9.09-51.61c-1.68,0-3.12-.59-4.29-1.77-1.18-1.18-1.77-2.61-1.77-4.29s.59-3.21,1.77-4.39c1.18-1.18,2.61-1.77,4.29-1.77s3.23.59,4.44,1.77c1.21,1.18,1.82,2.64,1.82,4.39s-.61,3.12-1.82,4.29c-1.21,1.18-2.69,1.77-4.44,1.77Z"/><path d="m653.77,186.67c-3.7,0-6.55-1.04-8.54-3.13-1.99-2.09-2.98-5.15-2.98-9.19v-23.43c0-.54-.22-.92-.66-1.16-.44-.24-1.3-.35-2.58-.35h-.81c-.4,0-.74-.29-1.01-.86-.27-.57-.4-1.13-.4-1.67,0-.13.08-.32.25-.56.17-.23.32-.39.46-.45,1.41-.87,2.81-1.83,4.19-2.88,1.38-1.04,2.66-2.1,3.84-3.18,1.18-1.08,2.17-2.02,2.98-2.83.4-.34.74-.64,1.01-.91.27-.27.61-.4,1.01-.4s.76.1,1.06.3.42.61.35,1.21l-.61,4.95c-.07.81.12,1.35.55,1.62.44.27,1.06.4,1.87.4h11.72c.2,0,.4.24.61.71.2.47.3.94.3,1.41,0,.74-.1,1.45-.3,2.12-.2.67-.44,1.01-.71,1.01h-9.8c-1.68,0-2.78.17-3.28.5-.5.34-.76,1.11-.76,2.32v19.59c0,2.83.57,5,1.72,6.51,1.14,1.52,2.76,2.27,4.85,2.27,1.95,0,3.43-.17,4.44-.5,1.01-.34,1.92-.74,2.73-1.21.2-.13.37-.2.5-.2.34,0,.56.17.66.5.1.34.15.71.15,1.11s-.61,1.11-1.82,2.12c-1.21,1.01-2.79,1.97-4.75,2.88-1.95.91-4.04,1.36-6.26,1.36Z"/><path d="m687.61,186.67c-3.7,0-6.55-1.04-8.54-3.13-1.99-2.09-2.98-5.15-2.98-9.19v-23.43c0-.54-.22-.92-.66-1.16-.44-.24-1.3-.35-2.58-.35h-.81c-.4,0-.74-.29-1.01-.86-.27-.57-.4-1.13-.4-1.67,0-.13.08-.32.25-.56.17-.23.32-.39.46-.45,1.41-.87,2.81-1.83,4.19-2.88,1.38-1.04,2.66-2.1,3.84-3.18,1.18-1.08,2.17-2.02,2.98-2.83.4-.34.74-.64,1.01-.91.27-.27.61-.4,1.01-.4s.76.1,1.06.3.42.61.35,1.21l-.61,4.95c-.07.81.12,1.35.55,1.62.44.27,1.06.4,1.87.4h11.72c.2,0,.4.24.61.71.2.47.3.94.3,1.41,0,.74-.1,1.45-.3,2.12-.2.67-.44,1.01-.71,1.01h-9.8c-1.68,0-2.78.17-3.28.5-.5.34-.76,1.11-.76,2.32v19.59c0,2.83.57,5,1.72,6.51,1.14,1.52,2.76,2.27,4.85,2.27,1.95,0,3.43-.17,4.44-.5,1.01-.34,1.92-.74,2.73-1.21.2-.13.37-.2.5-.2.34,0,.56.17.66.5.1.34.15.71.15,1.11s-.61,1.11-1.82,2.12c-1.21,1.01-2.79,1.97-4.75,2.88-1.95.91-4.04,1.36-6.26,1.36Z"/><path d="m713.46,186.67c-1.41,0-2.79-.45-4.14-1.36-1.35-.91-2.46-2.05-3.33-3.43-.88-1.38-1.31-2.74-1.31-4.09,0-2.22.62-4.01,1.87-5.35,1.25-1.35,3.18-2.56,5.81-3.64l9.8-4.14c1.35-.54,2.15-1.03,2.42-1.46.27-.44.44-1.33.5-2.68l.2-6.16c.07-1.82-.37-3.33-1.31-4.55-.94-1.21-2.32-1.82-4.14-1.82-.94,0-1.9.19-2.88.56-.98.37-1.77.79-2.37,1.26-.34.27-.56.64-.66,1.11-.1.47-.15.98-.15,1.51,0,.34.02.72.05,1.16.03.44.05.79.05,1.06,0,.4-.45.89-1.36,1.46-.91.57-1.95,1.1-3.13,1.57-1.18.47-2.17.71-2.98.71-.4,0-.72-.12-.96-.35-.24-.23-.35-.56-.35-.96,0-1.08.35-2.2,1.06-3.38.71-1.18,1.77-2.37,3.18-3.59,1.62-1.41,3.38-2.68,5.3-3.79s3.8-1.97,5.66-2.58c1.85-.61,3.49-.91,4.9-.91,2.83,0,5.13.96,6.92,2.88,1.78,1.92,2.61,4.39,2.47,7.42l-.5,22.83c-.07,1.48.24,2.69.91,3.64.67.94,1.51,1.41,2.52,1.41,1.55,0,2.76-.4,3.64-1.21.27-.27.51-.4.71-.4.34,0,.62.1.86.3.23.2.35.47.35.81,0,.81-.47,1.65-1.41,2.52-1.15,1.15-2.37,2.04-3.69,2.68-1.31.64-2.58.96-3.79.96-3.37,0-6.06-1.82-8.08-5.45h-.3c-2.22,1.89-4.31,3.27-6.26,4.14-1.95.87-3.97,1.31-6.06,1.31Zm5.25-5.45c1.14,0,2.1-.18,2.88-.56.77-.37,1.46-.89,2.07-1.57.34-.34.59-.76.76-1.26.17-.51.29-1.3.35-2.37l.2-5.76c.07-.67.03-1.16-.1-1.46-.14-.3-.4-.45-.81-.45-.14,0-.34.03-.61.1-.27.07-.64.2-1.11.4-3.03,1.15-5.15,2.34-6.36,3.59-1.21,1.25-1.82,2.61-1.82,4.09,0,1.82.49,3.15,1.46,3.99.98.84,2,1.26,3.08,1.26Z"/></svg>