<?xml version="1.0" encoding="UTF-8"?><svg id="Layer_1" xmlns="http://www.w3.org/2000/svg" viewBox="0 0 1139.81 645.11"><rect x="7.34" y="8.06" width="1126.45" height="630" rx="41.5" ry="41.5" style="fill:tan; stroke:#000; stroke-miterlimit:10;"/><path d="m703.71,344.95c1.17-.61,2.34-1.22,3.84-2.01-1.38-1.18-2.56-2.23-3.8-3.23-.8-.65-1.72-1.11-1.61-2.44.11-1.3-.44-1.71-1.7-.95-1.18.72-1.77-.05-2.79-.82-2.03-1.53-2.9-5.14-6.59-4.1-.65.18-1.55-.05-1.8-.88-.22-.73.54-1.01.94-1.47,1.23-1.4,2.65-2.51,4.7-3.07-1.31-.97-2.24-.33-3.18-.09-2.05.53-4.1,1.72-6.13-.17-.57-.53-1.4-.04-2.11.1-17.91,3.42-36,5.57-54.09,7.67-1.16.13-2.54-.04-2.79,1.8-.11.82-1.22.56-1.9.71-2.82.65-5.8.33-8.67,1.37,4.89,1.61,9.79,2.02,14.85,2.08-1.09.2-2.18.45-3.28.6-4.49.63-5.63,2.27-4.98,6.82.26,1.84.44,3.49-1.29,5.3-1.51,1.58-.13,5.25,2.01,8.07-3.97-2.35-5.64,1.78-8.57,2.48-2.38.57-2.32.85-.58,2.84-2.63.68-5.17,2.76-7.58-.39-.32-.42-.96-.41-1.43-.06-.48.37-.43.91-.3,1.43.16.62.45,1.24,1.07,1.46,3.26,1.17,3.81,3.68,3.02,6.57-.89,3.21-3.58,5.31-6.78,5.22-1.46-.04-3.06,1.83-4.32.01-1.57-2.26-3.72-4.23-4.14-7.15-.09-.61.01-1.21-.44-1.76-1.28-1.56-10.27-3.97-12.12-3.06-.75.37-1.22.25-1.97.05-4.02-1.03-8.07-1.84-12.01.39-4.83,2.73-9.86,4.23-15.47,2.7-1.09-.29-2.43-.55-3.74.6,1.69.77,3.9.56,4.12,3.1.15,1.72,0,3.16-1.94,3.11-4.22-.09-7.34,2.15-10.56,4.37-1.91,1.31-3.32,1.09-3.49-1.67-.08-1.24-.08-2.67-.7-3.65-2.07-3.31-.39-3.64,3.06-2.99-1.49-1.73-2.45-3.03-3.62-4.12-.66-.61-1.9-1.11-2.48-.12-.65,1.12.84,1.09,1.38,1.58.21.2.36.47.54.72-2.98,1.33-5.28.44-6.98-2.26-.53-.85-1.79-1.35-2.82-1.75-5.15-2-9.78-6.03-16.01-3.88-1.48.51-2.84-.51-3.54-1.93-1.25-2.52-2.29-1.36-3.31.12-.44.64-.36,1.93-1.48,1.68-1.12-.25-.56-1.36-.58-2.14,0-.2-.1-.39-.15-.59-3.19,1.08-4.65-3.58-7.78-2.39-1.76.67-1.73-.73-2-1.55-.91-2.77-2.51-3.35-5.3-2.5-4.17,1.27-8.43,2.28-12.73.11-.94-.48-2.2-.32-3.42-.46.11,2.35,2.16,3.33,3.42,5.44-2.72-.23-4.53-1.09-5.86-2.84-1.54-2.03-2.99-4.04-6.08-2.88-1.04.39-1.42-.56-1.8-1.32-.6-1.18-1.45-1.87-2.73-.96-1.21.86-1.39,2.02-.55,3.27.41.6.97,1.1,1.34,1.72,1.03,1.75,1.09,3.54,0,5.3-3.28,5.22-9.49,5.86-13.8,1.42-.28-.29-.56-.63-.73-.99-1.82-3.91-1.87-4.06-5.81-2.44-2.52,1.04-5.15.55-7.68,1.15-1.74.41-1.89-1.65-3.13-2.22-1.34,2.04,1.89,3.44.63,5.67-1.56-1.44-2.67-3.15-4.44-4-1.13-.54-2.33-.81-3.62-.74-3.44.19-7.28-2.58-7.97-6.01-.9-4.47-1.26-9.07-4.96-12.43-.78-.71-.43-1.73.1-2.59,1.37-2.2.49-3.98-1.5-4.92-2.08-.98-2.28-2.31-2.47-4.39-.19-2.04-.04-4.74-2.76-5.82-.33-.13-.8-.71-.72-.9.79-2.02-.55-3.86-.43-5.74.09-1.4.2-3.56,2.9-2.78.8.23,1.83.02,2.74-1.03-1.82-1.24-3.59-2.43-5.35-3.63l.19-.45c1.2.39,2.41.79,4.51,1.48-2.36-1.79-3.07-3.91-4.94-5.04-.61-.37-1.5-.78-1.11-1.62.46-1,1.45-.56,2.2-.27,3.57,1.41,7.44,1.96,10.83,3.89.68.39,1.46.88,2.68-.07-2.13-.98-3.99-2.38-6-2.64-3.23-.41-4.9-2.96-7.38-4.35-.25-.14-.58-.65-.57-.66,1.38-1.26,1.02-3.14,1.69-4.61.88-1.94,2.71-1.38,4.66-.78-.48-1.73-1.88-1.9-2.72-2.65-.79-.72-2-1.06-2.39-2.67,2.13.9,4,1.68,5.87,2.47-1.41-1.69-2.42-3.28-.1-4.99.21-.15.38-.61.31-.85-2.15-6.96,4.32-11.91,4.3-18.47,0-2.31,2.56-1.51,4.07-1.01,2.96.98,5.87,2.12,8.77,3.28,5.72,2.29,11.75,3.55,17.68,5.1,4.4,1.15,7.32,4.46,11.11,6.45,1.23.64-.03,1.22-.77,1.57-1.99.95-2.55,2.02-.1,3.08.83.36,1.52.75,1.6,1.7.12,1.44,1.03,1.9,2.28,2.09.84.13,1.83.4,1.87,1.36.07,1.42-1.33.94-2.1,1.28-1.57.69-3.47,0-5.51,1.18,7.81,2.44,15.36,3.44,22.84,4.86,3.93.75,8,1.99,11.79,2.27,3.71.27,7.71,1.13,11.53.17,1.09-.27,1.99-.42,2.94.27.59.43,1.33.95,1.99.39,1.43-1.19,2.98-1.31,4.7-.95.79.17,1.46-.07,1.74-.92.29-.88.72-1.8.04-2.67-.23-.3-.65-.54-1.02-.62-.46-.1-.76.22-.79.71-.04.63.62,1.54-.61,1.69-.46.06-.79-.3-.8-.76-.02-.81-.06-2.31.63-2.18,4.46.84,6.45-3.22,9.74-4.66,12.14-5.32,24.9-5.05,37.8-5.05,15.82,0,31.65.2,47.46-.7,3.94-.22,7.91-.1,11.87-.02,4.11.08,5.53,2.04,4.74,6.13-.17.88-.15,1.99.25,2.74,1.9,3.54,1.68,7.77,3.9,11.23.78,1.22,1.47,3.03-.61,4.3-.72.44-1.17,1.68-.76,2.52.4.81,1.51.46,2.3.42,14.45-.82,28.85-2.17,43.15-4.49,7.71-1.25,15.39-2.63,22.98-4.44,1.08-.26,2.28-.29,3.48-1.35-3.32-.41-4.91-2.84-5.26-5.33-.34-2.34-.51-5.08.85-7.38.56-.95.36-1.74-.02-2.65-1.24-3.02-.71-5.59,2-7.59.24-.18.56-.41.6-.65.59-3.71,3.34-4.97,6.48-5.82.37-.1.83-.2.83-1.14-1.62.19-3.22.33-4.81.58-1.1.18-2.35.24-2.76-.84-.94-2.44-2.62-1.79-4.35-1.38-27.57,6.45-55.61,9.35-83.82,10.83-14.03.74-28.08,1.35-42.14.98-3.2-.08-6.39-.47-10.03-.75,3-2.52,5.63-4.73,8.26-6.93.81-.68,1.44-.74,2.43.03,1.82,1.41,4.06.72,5.03-1.43.83-1.82,2.47-2.31,4.07-2.42,4.18-.3,7.86-1.31,10.7-4.74,1.08-1.3,2.88-2,4.36-2.96.88-.57,1.95-1.07,1.5-2.38-.3-.88-.53-1.63.54-2.07.97-.4,2.01-.8,2.92.08,2.15,2.09,3.29.76,4.18-1.23.92-2.07,1.64-3.91,4.74-3.08,1.81.49,3.03-3.07,1.86-5.17-1.91-3.45-4.09-4.03-8.09-3.3-5.97,1.08-10.71,4.19-15.12,8.05-.54.48-1.23.82-1.36,1.63-.46,2.81-2.4,2.4-4.29,1.91-3.19-.84-6.45.6-7.93,3.57-.27.55-.46,1.38-.91,1.58-4.45,1.99-7.33,6.24-11.85,8.08-.99.4-2,.85-2.53,1.74-1.13,1.88-2.27,2.49-4.57,1.53-2.11-.88-2.38,1.82-3.56,2.81-.55.46-1.04,1.36-.31,1.9,1.26.94,2.78,1.45,4.39,1.16,1.18-.21,2.17-1.24,3.55-.83.06,1.33-.57,2.04-1.82,2.04-10.51-.02-21.02-.1-31.47-1.37-.15-.02-.28-.23-.58-.49,2.2-1.91,5.03-2.41,7.5-3.6,1.22-.59,2.74-.94,3.44-2.04,1.91-3,5.35-3.35,8.09-4.69,3.6-1.77,7.06-3.39,9.17-6.98.79-1.34,2.07-1.98,3.53-2.38,5.03-1.36,9.84-3.42,14.42-5.76,6.34-3.24,12.29-7.25,18.42-10.9,6.5-3.87,13.38-7.1,19.54-11.55.99-.71,2.07-.64,3.26-.56,4.51.28,9.17.86,12.44-3.46.21-.28.75-.57,1.05-.49,2.8.69,3.66-1.4,4.57-3.23,1.03-2.07,2.22-3.98,3.85-5.64.63-.64,1.33-1.34,2.12-.67,2.28,1.92,4.94,1.27,7.49,1.32,4.58.08,9.31-.66,13.71.24,6.35,1.3,11.97-.46,17.46-2.75,4-1.67,8.04-1.98,12.18-2.25.94-.06,1.65-.22,1.99-1.12.76-2.01,2.35-2.93,4.34-3.03,3.67-.19,5.92-3.15,9.04-4.42,6.72-2.72,12.39-7.46,19.07-10.19,2.95-1.21,5.79-2.23,7.53-5.09.46-.76,1.28-.97,2.09-1.24,3.22-1.06,5.69-3.08,8.19-5.42,3.13-2.94,6.9-5.27,10.42-7.8,5.63-4.04,11.15-8.18,16.23-12.91,2.26-2.1,4.53-4.26,7.54-5.39,1.79-.68,2.89-2.19,4.06-3.72,2.49-3.24,5.3-6.23,7.99-9.31.2-.23.51-.56.74-.53,4.56.49,6.11-3.52,8.78-5.85.39-.34.74-.92,1.18-.99,5.09-.88,7.88-5.07,11.7-7.8,4.18-2.99,9.33-4.18,14.71-3.81,7.58.53,14.85,3.31,22.55,2.93,1.37-.07,2.34.73,3.14,1.76,2.39,3.05,4.05,6.54,6,9.84.31.53.21,1.11.15,1.75-.18,1.87,0,3.76,2.4,4.25.92.19,1.4.86,1.8,1.6,3.29,6.03,6.57,12.07,9.85,18.1.67,1.24,1.04,2.53.46,3.89-3.61,8.53-7,17.2-12.06,24.99-4.76,7.32-11.84,11.81-20.03,14.71-16.11,5.7-32.68,9.88-49.1,14.54-15.25,4.33-30.12,9.69-44.88,15.4-3.44,1.33-5.59,4.25-8.64,6.02-1.41.82-.57,1.98.37,2.8,1.57,1.37,3.05,2.87,4.77,4.01,2.4,1.59,2.44,3.71.62,5.17-3.96,3.17-3.06,6.54-1.79,10.61,2.57,8.21,4.61,16.59,6.91,24.89.3,1.08.64,2.36,1.4,3.07,1.16,1.07,1.32,1.97.52,3.21-.36.55-.39,1.13-.18,1.78,2.41,7.44,2.76,15,.9,22.59-.9,3.67-2.99,7.69-5.51,9.41-2.32,1.58-1.83,4.68-4.43,5.31-2.72.66-3.59,3.35-5.48,4.89-2.34,1.91-4.44,4.4-8.31,2.11-1.41-.83-4.12.54-6.24.91-.06-.19-.12-.38-.18-.58Zm72.41-193.88c-2.68,2.69-5.43,5.18-8.7,7.18-2.49,1.52-5.88,2.84-6.8,5.72-1.38,4.3-6.25,3.63-8.2,6.76-6.34.74-9.92,6.12-14.95,9.07-3.79,2.23-7.15,5.24-11.1,7.34-3.29,1.75-6.84,3.49-9.48,5.82-2.75,2.43-4.96,5.07-8.83,5.44-.09,0-.16.12-.24.19-6.54,5.15-13.47,9.59-21.47,12.23-1.77.58-3.24,2.14-4.81,3.3-.45.33-.63.94-.15,1.36,2.1,1.79-.13,1.86-.96,2.28-1.62.81-3.41.85-5.19.78-1.4-.05-2.12.72-2.22,2.07-.1,1.41-.02,2.84,1.69,3.24,1.42.33,3.03.52,4.18-.56,1.77-1.68,3.88-2.76,5.88-4.06.99-.64,2.31-1.33,1.94-2.89-.63-2.7,1.82-2.85,3.17-3.89.33-.25,1.12-.26.92.62-.64,2.91,1.27,1.28,1.95.96,2.45-1.13,4.81-2.46,7.21-3.72,1.2-.63,2.37-1.45,3.8-.7,1.31.69,2.21.01,3.01-.87,1.71-1.91,3.36-3.55,6.14-4.24,2.64-.66,4.84-2.93,7.46-3.81,7.86-2.64,13.34-8.69,19.6-13.52,3.96-3.06,8.24-5.75,11.99-9.16,1.48-1.34,2.16-3.68,3.83-4.14,2.73-.75,4.21-3.92,7.43-3.48.41.06,1.15-.61,1.38-1.11,1-2.22,3.09-2.66,5.07-3.2,1.1-.3,1.95-1.31,2.59-1.54,2.31-.81,1.61-4.22,3.51-4.24,2.17-.03,3.7-1.39,5.48-1.63,2.55-.34,4.48-1.24,6.33-2.89.99-.88,2.28-1.88,3.49-1.97,5.32-.37,4.8-4.83,6.07-8.09.67-1.72-1.88-2.41-1.18-3.91,1.34-2.87-.49-2.21-2.12-2.17-2.24.05-3.03,1.74-3.76,3.28-1.42,2.98-4.32,3.89-6.92,4.08-3.08.22-4.3,1.1-4.3,4.14,0,1.01.14,2.85-1.09,2.94-1.72.13-.18-1.99-1.64-2.99Zm-157.2,172.11c24.05-1.18,47.75-4.24,71.07-10.17-1.09-.26-2.15-.77-3.29-.34-1,.38-2.14.93-2.66-.43-.5-1.3.16-2.45,1.32-3.19,1.64-1.04,3.25-2.12,5.11-2.9-3.9.39-7.71.01-11.44.22-5.78.32-11.48,1.84-17.24,2.69-11.52,1.71-23.05,3.35-34.66,4.35-.97.08-2.92.14-2.65.92.73,2.17-.85,1.42-1.58,1.58-2.25.48-4.52.85-7.61,1.41,2.54.86,4.68.44,5.6,2.62.87,2.06-1.85,1.59-1.96,3.25Zm-3.18,9.3c17.18.75,74.74-7.7,80.15-11.8-1.84.77-3.65-.24-5.49.04-.96.14-1.61-.31-1.79-1.3-.19-1.06.5-1.56,1.32-1.83,1.54-.52,3.11-.95,4.66-1.42-4.92.32-9.9.38-14.61.98-15.87,2.03-31.65,4.8-47.6,6.35-1.45.14-3.83.04-4.15.76-1.44,3.3-4.34,1.74-6.5,2.4-1.33.4-2.75.51-4.22.77.66,1.41,2.94.43,2.57,2.08-.41,1.82-2.6,1.79-4.32,2.97Zm-125.56-24.69c2.45-.34,4.91.72,6.95-1.24.59-.57,1.5-1.02,1.3-1.97-.24-1.19-1.31-.79-2.07-.76-3.46.14-6.96.76-10.36.41-4.85-.5-9.27-3.1-14.41-2.87-2.17.1-4.49-.56-6.78-.43-.51.03-1.34.22-1.48,0-2.24-3.68-6.16-2.29-9.32-3.11-.81-.21-2.07-.28-2.39.88-.31,1.12.85,1.53,1.54,2.12,2.24,1.92,5.24,1.6,7.83,2.36,6.47,1.9,13.08,3.37,19.42,6.02-8.65-1.21-17.3-2.43-26.64-3.74,4.76,2.55,44.84,7.19,47.85,5.8-3.59-1.96-7.95-1.29-11.43-3.47Zm-51.66-1.51c29.83,7.91,60.28,10.52,91.01,10.88-2.59-1.88-5.59-1.82-8.52-2.03-18.05-1.32-36.06-3.05-54.01-5.45-9.47-1.26-18.77-4.09-28.49-3.39Zm88.05,30.52c-29.14-2.89-58.24-5.83-87.17-11.34.56,1.89,1.55,2.7,3.33,2.98,3.48.53,6.92,1.37,10.39,2.03,9.39,1.79,18.86,3.01,28.33,4.28,11.64,1.57,23.36,2.22,35.08,2.89,3.35.19,6.72.49,10.04-.84Zm-86.24-19.23c28.39,6.17,56.91,10.8,86.73,10.34-1.57-1.54-2.77-1.22-3.87-1.33-17.9-1.76-35.83-3.28-53.62-6.07-7.08-1.11-14.19-2.06-21.27-3.17-1.85-.29-3.85.77-5.59-.9-.87-.84-1.54.65-2.37,1.13Zm12.77,33.6c-2.46-1.22-5.7-1.69-5.15-5.71.1-.73-2.62-1.13-3.55-.62-1.32.73.23,1.39.75,2.03.79.98.78,2.21.33,3.23-.44,1.02-1.63.61-2.53.71-1.18.13-2.35-.91-3.45-.16,1.2,4.49,5.22,3.37,8.24,4.24.68.19,1.47-.25,1-.97-1.35-2.03.25-1.66,1.31-1.82.96-.14,2.09.4,3.06-.95Z"/><path d="m466.77,450.83c1.03-1.68,3.54-2.88,1.63-5.52-.36-.51.51-.99,1.1-1.25.97-.44,1.1-1.13.47-2.14-1.37,1.05-2.66,1.72-4.63,1.5-3.2-.35.38,1.99-.85,2.66-.73.55-1.6-1.48-2.24-.07-.62,1.36.9,1.28,1.57,1.76.82.59,1.61,1.22,2.19,2.31-1.34-.49-2.7-.94-4.02-1.49-2.08-.86-3.27-.88-1.44,2.14-2.71-.77-3.43-1.66-1.58-3.55,1.3-1.33,2.45-2.8,3.47-4.41-6.61,5.21-11.42,12.34-18.28,17.34,4.83-6.2,10.99-11.34,15.46-18.98-2.99,1.27-4.23,3.39-6.21,4.55,1.85-3.17,5.47-4.93,6.88-8.93-1.84.87-3.02,1.94-4.05,3.34-1.19,1.63-2.33,2.39-4.88,1.75-7.47-1.87-15.25-1.53-22.91-2.02-2.87-.19-5.8.72-7.82,3.23-.37.46-.71,1.21-1.46.8-.65-.35-.42-1.11-.39-1.7.25-5.82,1.78-11.35,4.62-16.38,3.53-6.27,8.88-11.37,12.54-17.42,2.9-4.8,6.12-3.1,9.57-2.87,1.74.12,3.45.75,5.17,1.17,2.8.69,5.15.46,7.3-1.98,2.44-2.78,8.52-2.8,12.56-.41,1.68.99,2.75,1.31,4.91.18,2.15-1.13,5.43-.27,7.91,1,1.39.72,2.42.91,3.68-.05,1.83-1.39,3.82-.38,5.74-.23,4.53.36,8.82,1.52,12.67,4.01,1.55,1,3.04,1.24,4.67.27.79-.46,1.62-1.22,2.58-.59,1.35.89-.35,1.83-.03,3.02,1.79-.41,3.66-.6,5.35-1.28,5.38-2.17,10.55-1.41,15.79.52,2.93,1.08,6.04,2.82,8.9-.29,3.61,1.32,6.48-1.52,9.82-1.75,1.76-.12,3.42-.47,4.98-1.54,1.35-.93,1.84-.4,2.46,1.24.54,1.42,1.58,1.22,2.68.41.88-.65,1.92-2.1,2.77.13.04.11.97.02,1.4-.17,3.16-1.34,6.83-1.32,9.63-3.61.2-.17.69-.31.82-.2,2.48,2.2,5.22.13,7.81.45,1.2.15,2.47-.38,3.32,1.02.42.7,1.19.85,1.92.4,4.98-3.06,10.55-4.35,15.93-2.39,3.51,1.28,5.98.76,8.96-.69,2.02-.98,4.32-1.56,6.68-1.3,3.6.4,5,3.44,2.88,6.33-.31.42-.85.77-.29,1.28.43.39,1.02.27,1.43-.09.54-.48.98-1.06,1.48-1.59,5.08-5.32,11-9.25,18.42-10.29,2.01-.28,4.84-1.2,5.14,2.56.06.73.9.85,1.52.61,3.84-1.5,7.92-1.1,11.9-1.47,1.29-.12,2.41-.4,3.45-1.22,1.64-1.29,3.39-2.02,5.46-.79.4.24,1.1.39,1.48.21,3.6-1.78,7.92-1.52,11.28-4.03.73-.55,2.14-1.16,2.89-.31.93,1.05-.65,1.72-1.02,2.6-.2.46-.68.78-.97,1.21-.68.95-2.63,1.7-1.79,2.82.68.91,2.67,1.86,3.95,1.19,7.99-4.2,11.65,2.39,14.89,6.86,11.22,15.45,16.06,32.78,12.22,51.9-2.66,13.24-10.7,23.26-20.05,32.42-10.08,9.89-22.83,13.99-36.19,17.08-11.15,2.58-22.26,5.33-33.63,6.65-9.19,1.06-18.48,1.31-27.68,2.31-17.46,1.9-34.94,1.44-52.39.41-12.66-.75-25.25-2.16-37.62-5.37-11.27-2.92-22.81-4.78-34.12-7.57-10.85-2.68-21.17-6.84-30.81-12.62-3.56-2.13-6.16-5.25-8.96-8.17-.94-.98-1.16-1.96-.47-3.35,1.41-2.85,1.74-6.2,4.11-8.62,1.16-1.18-.66-1.4-.88-2.18,2.57-.62,4.56-2.37,6.84-3.52,1.54-.78-1.53-1.83.46-2.18,1.43-.25,2.71-2.29,4.34.43-.52-2.9,1.11-3.33,2.61-3.75.39-.11,1.03.6,1.33-.1.28-.65-.14-1.13-.74-1.5-.69-.43-1.4-.9-1.92-1.51-.51-.58-2.13-.82-1.1-2.04.74-.87,1.66-2.03,3.16-1.03.6.4,1.25.72,1.86,1.11.84.53,1.3,2.05,2.44,1.57.84-.36,1.14-1.6,1.99-2.35.96-.84-1.7-1.62-1.58-3.06.2,0,.4.01.59,0,1.45-.14,2.07,3.07,3.48,1.34,1.05-1.29-2.11-1.19-2.08-3.4,3.21,3.49,5.06-.6,7.66-.81-.6,2.1-2.64,2.85-3.98,4.25-7,7.38-13.96,14.8-20.99,22.15-2.66,2.78-4.32,8.28-2.94,11.13.76-3.04,1.9-5.6,3.47-8.1,3.7-5.86,9.53-9.76,13.45-15.37.21-.3.67-.63,1-.61,1.37.06,1.38-.6,1.4-1.75.04-1.96,2.96-4.41,4.32-3.62,1.95,1.12,4.14,1.32,6.16,2.12,1.17.46,2.7,1.95,3.21-.94.23-1.33,1.23-.24,1.91.12,1.79.96,3.2,2.67,5.94,3.11-1.94-2.71-5.31-3.22-6.05-6.25,5.4,3.8,10.91,7.45,15.6,12.12,1.09,1.08,3.25,1.18,3.36,3,.14,2.36,1.69,3.36,3.29,4.46,2.58-3.47-.38-4.67-2.43-6.18-2.92-2.16-6.04-4.09-7.99-7.36,5.43,3.89,10.87,7.78,16.46,11.79.39-2.02-1.88-1.94-1.75-3.5,1.54.17,2.44,1.45,3.68,2.08.44.22.99.56,1.31-.1.2-.4,0-.79-.45-1-2.37-1.08-3.87-3.29-5.84-4.87-4.54-3.64-9.39-6.8-14.54-9.22-1.77-.83-1.43-1.31-1.41-2.39l-.04.05c1.08-.58,1.52,1.39,2.67.72-.08-.25-.09-.49-.22-.63-3.37-3.84-8.49-4.99-12.4-8.02-1.15-.9-1.78.62-2.6,1.07-1.2.66-1.87,2.36-3.67,1.83Zm160.64,42.48c.63-.21,1.26-.41,1.89-.62l-.07.04c1.05-.4,1.23-1.3,1.3-2.26-.16-.6-.39-1.2,0-1.79,0-.43,0-.87,0-1.3-2.05-2.17-2.19.62-3.18,1.22,0,1.28,0,2.56,0,3.83v-.08c.01.32.04.64.07.96l-.1.07.07-.08Zm-1.29-23.11c1.51.96,1.62,2.66,1.37,3.97-.45,2.4.67,2.73,2.47,2.43.89-.15,1.85.4,2.72-.26-.44-1-2.51-1.92.45-2.8,1.73-.51,1.35-3.23.81-4.76-.6-1.7-1.83-.01-2.77.19-1.71.37-3.27,1.31-5.08,1.28,1.03-2.95,4.58-2.42,6.3-4.43-2.75-2.6-9.98-2.31-14.17.5-1.17.78-1.41,1.66-.52,2.68.79.34.08-3.21,1.62-.48.21.37.8.82.86.46.46-2.61.93-.9,1.5-.07.34.5.91,1.14,1.23.03.54-1.84,1.09-.55,1.55-.03.48.55.85,1.19,1.67,1.28Zm-34.71,25.68c1.66,3.3.1,5.94-2.1,8.08-1.18,1.15-2.41,2.28-3.56,3.48-2.7,2.8-2.71,2.78-4.68-.31-.03-.05-.36.08-.66.15-.54,1.52,1.88,2.15,1.29,3.75-1.46.03-2.58-1.42-4.31-.71,1.2,1.02,2.02,2.75,3.67,2.04,4.97-2.14,9.69-4.7,11.59-10.31.57-1.67,1.29-2.32,2.9-1.16.47.34.95.9,2.05.09-2.17-1.47-2.67-4.17-4.85-5.6-.12-.26-.24-.41-.4-.03-.59-.13-1.18-.26-1.77-.4-.35-.17-.7-.35-1.05-.52-.03.14-.06.29-.09.43.39,0,.77.01,1.16.02.27.35.54.7.81,1.06-.09.03-.21.05-.27.11-.04.04-.02.16-.02.24l.3-.43Zm60.32-35.02l.05-.06c-2.32.28-4.64.17-6.81-.66-1.56-.59-2.74-1.64-2.42-3.68.25-1.55-.46-1.76-1.79-1.06-1.12.59-2,.91-1.89,2.63.1,1.58.88,1.78,1.96,2.28,1.63.74,3.92.26,4.99,2.36-1.42.97-1.78-.78-2.86-.75-3.05.1-5.47-.79-5.72-4.45-.09-1.27-.93-2.09-2.15-2.38-3.15-.75-6.31-1.47-9.47-2.13-.6-.13-1.38-.53-1.87.18.41,2.26,3.49-.09,3.7,2.36-1.88.77-3.88-.71-5.78.11.25,1.58,2.82.01,2.3,1.8-.42,1.43-1.97-.37-2.81.21-.19.89,1.28,1.35.54,1.97-.72.6-1.23-.24-1.52-.96-.68-1.69-1.86-1.93-3.4-1.29.14,1.45,2.27-.25,1.9,1.3-.23.95-1.34,1.15-2.33.52-.56-.36-1.18-.31-1.8-.09-.41.14-.76.25-.71.81.08.86,3.16,3.16,3.94,2.75,2.73-1.44,5.7-1.44,8.6-2,1.61-.31,2.01-.14,2.86.89,1.51,1.83,3.09,3.65,5.82,3.51.43-.02.98.17.81.63-1.15,3.1.92,6.39-.64,9.49-.78,1.54-.24,2.35,1.67,2.64,1.67.25,3.24,1.19,4.85,1.82,1.38.76,1.96,2.56,3.71,2.83,4.06.34,5.89-2.83,8.14-5.25,4.08-4.41,4.21-13.86.34-18.27-.95-1.09-1.8-1.39-3.06-.15-1.7,1.68.94,1.28.85,2.11Zm-163.22,12.77c.01-1.36-.3-1.56-.71-1.75-2.4-1.1-4.65-2.46-6.95-3.73-5.86-3.23-12.28-5.26-18.4-7.94-1.48-.65-1.95.36-2.49,1.06-.86,1.11.29,1.38,1.01,1.68,1.88.79,4.52.58,4.44,3.8-.02.61.47-.05.77-.19,4.49-2.09,8.84-1.1,11.85,2.29,2.72,3.07,6.01,3.84,9.51,4.73.64.16.98-.17.97.05Zm120.19,12.93c-2.64-3.81-1.51-8.19-3.89-11.48-2.17-3.01-4.2-6.11-6.29-9.17-.28.18-.57.36-.85.54,1.15,2.34,1.88,5.04,3.54,6.93,3.17,3.62,3.66,7.62,2.93,12.02-.27,1.61-.32,2.96,1.83,3.84-.27-2.01-.42-3.85,2.74-2.68Zm80.55-77.06c-1.12.15-2.27.22-3.37.47-.84.19-2.24.11-2.08,1.33.15,1.15,1.5.87,2.37.83,3.38-.15,6.61.26,9.57,2.05.42.25.98.34,1.48.38,1.07.08,1.79-.36,1.99-1.49.23-1.35.42-2.71-.75-3.76-1.19-1.06-1.52.15-2.09.82-.84.98-1.89.65-2.86.27-1.37-.54-2.76-.86-4.25-.9Zm-145.06,95.87c6.22,1.3,9.17,6.94,14.15,9.48,1.28-2.61-.3-3.79-1.89-4.4-1.52-.59-4.13.22-2.25-2.88,0,0-.27-.23-.44-.3-2.93-1.22-5.44-4.19-9.57-1.9Zm-34.9-33.51c3.72,3.28,7.63,6.39,11.12,9.9,3.42,3.44,6.79,6.84,11.34,8.85-7.66-6.11-13.73-14.04-22.46-18.75Zm95.19,25.55c-.1.15-.3.31-.3.45.02.33.25.53.57.32.12-.08.18-.36.14-.51-.03-.11-.27-.17-.42-.26Z"/><path d="m409.13,249.46c.11-1.98,1.01-3.54,2.43-4.9,6.57-6.28,14.63-9.83,23.13-12.49,12.28-3.84,24.96-5.41,37.73-6.69,13.77-1.38,27.45-3.55,41.21-5.07,20.63-2.28,41.35-2.18,62.07-1.97,10.42.11,20.79.92,31.16,1.91,2.15.2,2.97.9,1.67,2.92-.57.89-.93,1.84-1.16,2.87-.35,1.57-1.18,2.22-2.95,1.78-6.41-1.6-12.53-.98-18.32,2.46-10.01,5.94-20.05,11.85-30.15,17.64-7.4,4.25-15.06,8.04-22.32,12.5-6.01,3.69-12.4,6.75-18.07,10.99-1.91,1.43-3.62,3.15-5.24,4.78-3.11,3.14-6.64,3.05-10.38,2.76-13.29-1.04-26.48-2.86-39.58-5.35-12.29-2.33-24.44-5.15-35.99-10.06-4.52-1.92-8.79-4.31-12.33-7.78-1.74-1.7-3.11-3.67-2.89-6.31Z"/><path d="m428.24,476.24c-2.71-3.09-4.64-6.4-6.11-9.92-1.2-2.87,1.54-8.21,4.91-9.48,3.04-1.14,6.32-.78,9.47-.29,1.71.27,1.78,1.36.54,2.65-2.05,2.13-4.44,3.87-5.74,6.77-1.48,3.28-3.46,6.32-3.06,10.26Z"/><path d="m556.91,401.22c-2.64-.96-5.77.2-8.18-3.11-1-1.38-3.35-1.98-4.32-4.1-.83-1.82-.44-2.85.97-4,3.78-3.1,10.09-3.02,12.26.22,1.22,1.83.67,6.33-1.07,7.63-2.04,1.52,1.22,1.78.35,3.36Z"/><path d="m567.14,380.23c-1.23-.15-3.15.43-3.52-1.06-.35-1.44-.11-3.59.78-4.65,1.36-1.6,2.42-3.55,4.37-4.71,3.11-1.84,6.82-1.63,9.04,1.03,1.46,1.75.59,3.79-.69,5.05-2.69,2.64-5.99,4.32-9.99,4.34Z"/><path d="m684.71,376.79c1.76.11,4.33,2.99,3.51,4.29-2.37,3.73-3.63,8.4-7.96,10.61-1.27.65-2.74.97-4.16,1.23-1.19.21-1.93-.58-1.43-1.69,2.25-4.9,4.52-9.81,8.36-13.75.45-.46,1-.74,1.67-.68Z"/><path d="m459.31,389.98c-.89,1.52.51,4.48-2.13,4.84-2.39.33-4.99-.36-6.5-2.78-.82-1.31-1.49-2.72-2.32-4.02-1.07-1.68-1.1-3.46,0-4.96,1.22-1.67,3.26-1.54,5.13-1.46.55.02,1.44.08,1.07,1.03-.58,1.48.75,1.67,1.42,1.89,2.69.88,3.16,2.97,3.33,5.46Z"/><path d="m437.07,377.94c3.03,0,7.51,4.85,8.32,9.07.19,1.01.5,2.14.24,3.08-.32,1.15-.92,2.5-1.84,3.14-1.84,1.28-1.47-1.42-2.51-1.72-5.04-1.48-4.64-6.64-6.69-10.1-1.28-2.16-.06-3.47,2.48-3.47Z"/><path d="m543.37,400.42c-.1,1.71-2.45,2.6-3.9,1.41-1.98-1.62-3.85-2.86-6.68-2.52-1.83.22-5.21-4.08-5.8-5.83-.49-1.44.04-1.65,1.06-1.88,3.23-.73,6.4-.48,9.46.76,1.18.48,2.2,1.26,2.72,2.45.75,1.75-.02,4.39,2.91,4.87.13.02.18.55.24.73Z"/><path d="m464.63,386.09c-.37-1.7.89-2.41,2.22-3.14,2.38-1.32,4.54-.36,6.4.91,1.68,1.15,2.92,2.89,4.51,4.25,1.83,1.57.86,3.45-.78,4.38-1.29.73-2.99,2.93-4.65.22-.31-.51-.93-1.39-1.16-1.32-3.17,1-3.47-2.95-5.85-3.31-.89-.14-.79-1.08-.7-1.98Z"/><path d="m513.02,366.14c3.75-.06,6.83,1.94,7.96,4.59.12.27.37.48.56.72-1.58.78-2.28,1.8-2.57,3.79-.41,2.83-2.82,1.1-4.3.8-1.39-.28-3.03.71-4.15-.65-.9-1.09-3.13-1.66-2.05-3.68,1.25-2.33,1.5-5.76,4.55-5.57Z"/><path d="m694.5,353.98c-3.86-.03-5.11-2.48-4.14-5.93.96-3.4,2.68-5.42,6.17-5.95.64-.1,1.53-.32,1.69.23.71,2.58,2.31,5.02,1.24,7.92-.93,2.52-2.4,4.07-4.95,3.73Z"/><path d="m549.05,283.75c21.31.07,42.58-.93,63.86-1.45-3.74,2.04-57.36,3.34-63.86,1.45Z"/><path d="m653.79,389.99c-.2-1.79,1.69-1.24,1.53-2.54-.4-3.36,3.62-3.98,4.45-6.76.11-.36,3.46-.23,4.89-1.67.71.74,1.4,1.5,2.13,2.21,1.17,1.13.87,2.28-.05,3.3-1.59,1.77-3.22,3.52-4.96,5.14-1.01.95-2.42,1.52-3.74.8-1.35-.74-2.73-.76-4.25-.48Z"/><path d="m702.95,374.32c-.07,4.92-5.43,9.97-9.9,9.65-1.14-.08-2.05-.16-1.83-1.76.49-3.55,5.46-8.77,8.94-9.92,2.69-.89,2.86.34,2.79,2.03Z"/><path d="m710.45,360.19c-.04,4.73-3.68,7.59-7.57,5.96-2.93-1.23-2.99-5.71-.05-7.94.56-.43,1.27-.61,1.65-1.32,1.03-1.94,3.9-1.91,5.18.04.65.99.82,2.11.79,3.27Z"/><path d="m427.65,367.71c2.74-2.16,5.63-.28,8.42-.96,2.06-.5,4.28,1.42,4.84,4.02.22,1.03,1.09,2.29-.35,3.06-1.11.59-2.41,1-3.51-.02-1.08-1-2.07-1.33-3.62-.89-2.67.76-2.78-2.32-4.28-3.42-.44-.32-1.26-.94-1.5-1.79Z"/><path d="m445.3,449.79c.96-1.18-1.06-3.26,1.85-2.5.43.11.7-.46.54-.88-.34-.95-1.28-1.31-2.02-1.84-.47-.34-1.02-.28-1.08.47-.04.52-.49,1.33-.63,1-1.09-2.47-3.9-.48-5.2-2.15-1.05.56.65,1.5-.24,2.02-1.33.75-1.35-4.41-3.29-.64-1.11-.78-1.99-1.96-3.72-1.37-.56.19-1.22-.37-.79.77.49,1.31-.17,1.55-1.21,1.01-.97-.51-2.88.39-2.86-1.58.02-2.01,2.13-2.26,3.18-2.15,6.78.74,13.68-.08,20.37,1.63,1.63.42,1.81,1.3.75,2.43-1.35,1.44-3,2.5-5.66,3.8Z"/><path d="m507.94,398.75c1.74-1.29,2.61-2.44,2.32-4.39-.31-2.07,1.09-2.83,2.86-1.54,1.69,1.23,3.48,2.26,5.24,3.36,1.08.68,2.02,1.68,1.64,3.09-.36,1.33-1.49,1.9-2.82,2.14-2.02.36-4.03.35-5.64-1.03-.92-.78-1.98-1.03-3.6-1.62Z"/><path d="m469.71,370.64c-4,.07-5.83-2.16-4.84-6.07.6-2.35,2.19-2.81,3.98-.9,1.17,1.25,2.45,2.12,3.96,2.84.95.46,2.43.89,2.08,2.3-.36,1.45-1.71,1.97-3.16,1.98-.62,0-1.23-.09-2.01-.15Z"/><path d="m679.26,379.25c.01,2.14-6.21,8.92-8.19,8.94-1.78.02-3.17-.47-2.14-2.8,1.55-3.53,4.14-5.86,7.84-6.85.86-.23,2.09-.58,2.49.71Z"/><path d="m593.17,388.72c1.37-.34,1.91-.39,2.08.28.16.65-.05,1.31-.54,1.7-2.99,2.38-6.07,4.65-9.53,6.32-1.2.58-2.44.11-2.7-1.21-.27-1.39.99-1.74,2.05-1.63,1.67.17,2.08-.47,2.69-2.05,1.1-2.82,4.38-2.62,5.94-3.41Z"/><path d="m641.57,393.25c-1.21-.24-2.71-.58-3.18-2.18-.51-1.75.91-1.98,2.14-2.29.85-.21,1.31-.9,1.84-1.55,1.4-1.72,3.6-1.6,4.92.18.18.24.44.51.45.78.05.8-5.01,5.07-6.18,5.05Z"/><path d="m567.01,395.65s.37.72-.54.97c-.58.16-.99-.33-1.18-.8-.72-1.74-2.35-3.68,1.32-4.21,1.49-.22,1.84-2.83,4.03-2.32.85.2,1.91-.35,2.52.68.55.93.08,1.81-.32,2.65-.56,1.17-1.55,1.22-2.65.96-.5-.12-1.01-.22-1.52-.32-1.57-.33-2.55-.06-1.66,2.41Z"/><path d="m651.43,464.12c.36-1.08.65-2.17.36-3.33,0,0-.05.06-.05.06,1.51.36,2.14,1.53,2.53,2.85,1.86,6.21-.71,13.07-6.1,16.69-.92.62-2.69.18-2.7,2.02-1.75-.27-2.34-2.07-3.71-2.83.84-1.04,4.44-2.33-.32-2.85-.93-.1-.96-1-.08-1.54.58-.35,1.5-.02,1.84-.88-.17-.74-.61-.47-1.14-.5-1.62-.11-3.47-.56-4.36-1.73-.97-1.28.24-3.13.52-4.65.16-.88,2.1-2.23,3.53-.6,2.19,2.5,4.46,2.96,7.01.59.15-.14.33-.28.52-.34q2.45-.79,1.22-2.57c.31-.13.62-.27.93-.4Z"/><path d="m630.53,488.68c-.4.6-.17,1.19,0,1.79-.43.75-.86,1.51-1.3,2.26,0,0,.07-.04.07-.04-.65-.11-1.29-.22-1.94-.33,0,0,.01.08.01.08.1-1.28,2.38-2.56,0-3.83.98-.6,1.12-3.4,3.18-1.22-.56.43-.61.86,0,1.3Z"/><path d="m483.03,455.82c-1,.43-1.47,1.72-2.91-.33-1.4-2-4.66-2.71-7.12-4-.49,1.22,1.56,1.21.78,2.64-2.72-2.56-5.13-2.7-6.78,1.14-.26.6-.9.4-1.33.05-.69-.57.06-.85.31-1.2,1.46-1.98,3.51-3.21,5.59-4.38.35-.19.97-.42,1.17-.26,3.19,2.5,7.77,2.76,10.25,6.39,0,0,.04-.05.04-.05Z"/><path d="m651.43,464.12c-.31.13-.62.27-.93.4-.5-.43-1.38-.97-.41-1.53.72-.41,1.2.37,1.34,1.13Z"/></svg>